<svg width="239" height="191" viewBox="0 0 239 191" fill="none" xmlns="http://www.w3.org/2000/svg">
<path d="M106.159 146.487C106.159 146.487 97.216 158.886 105.143 166.761C113.067 174.638 135.427 181.539 135.427 181.539L137.378 151.076C137.378 151.076 110.612 136.509 106.159 146.487Z" fill="white"/>
<path d="M161.687 12.5774C161.687 12.5774 155.112 14.683 150.866 21.5605C148.824 24.8678 147.204 32.9495 146.584 36.5714C144.678 47.728 141.714 68.4615 155.239 74.3955C155.239 74.3955 164.36 82.8316 176.181 78.691L181.955 113.865C181.955 113.865 202.647 105.248 196.518 86.2939L191.305 53.1221C191.305 53.1221 198.8 52.6174 201.701 43.5217C201.701 43.5217 189.805 3.61787 161.687 12.5774Z" fill="white"/>
<path d="M179.517 82.8575C179.517 82.8575 180.566 77.6442 186.601 75.0575C186.601 75.0575 193.166 70.769 190.833 65.5839C188.497 60.4011 182.873 61.0888 180.772 65.8327C180.772 65.8327 176.04 74.8251 176.195 75.7664C176.35 76.7077 158.26 79.5667 152.807 73.1609C152.807 73.1609 148.136 76.0528 149.178 80.2098C149.178 80.2098 151.776 83.8739 157.26 83.7918C157.26 83.7918 149.326 86.5146 156.584 90.4416C156.584 90.4416 150.704 94.2113 156.584 96.446C156.584 96.446 152.844 100.141 158.344 101.91C158.344 101.91 163.492 104.589 169.79 101.204C169.79 101.204 165.123 127.583 167.156 135.718C167.156 135.718 166.43 178.007 194.018 180.845C194.018 180.845 219.24 181.023 226.974 158.56L229.831 145.678C229.831 145.678 218.425 139.765 204.583 143.363C204.583 143.363 188.326 104.199 188.155 103.335C187.983 102.474 179.517 82.8575 179.517 82.8575Z" fill="white"/>
<path d="M133.991 101.143C133.991 101.143 111.333 133.875 103.15 152.731C94.9673 171.587 130.24 179.429 130.24 179.429" stroke="black" stroke-miterlimit="10"/>
<path d="M156.567 90.4723C147.415 95.3405 136.186 158.588 136.186 158.588L131.2 156.623L117.384 151.189L109.201 147.971L101.789 145.054L113.027 122.74C135.606 86.4021 156.565 90.4723 156.565 90.4723H156.567Z" fill="#E6E7E8"/>
<path d="M135.648 114.872C132.831 121.104 131.399 152.023 131.202 156.626L117.386 151.192C119.738 141.317 135.648 114.872 135.648 114.872Z" fill="black"/>
<path d="M186.164 178.739C192.924 181.709 201.142 180.183 207.438 178.195C214.198 176.061 220.533 168.202 220.488 169.669V189.544H130.088C130.088 189.544 128.954 143.124 133.224 119.644C136.334 102.556 147.913 95.6409 153.995 93.1387C153.812 94.1198 154.349 95.2325 156.572 96.2958C156.572 96.2958 152.051 99.6641 159.558 102.234C160.062 102.406 160.567 102.535 161.065 102.624C165.6 103.45 169.773 101.232 169.773 101.232C169.773 101.232 157.194 166.008 186.167 178.739H186.164Z" fill="#E6E7E8"/>
<path d="M238.086 148.997L229.814 145.38L227.985 144.507C227.964 144.492 227.939 144.485 227.91 144.471C224.091 142.889 215.01 139.979 205.224 143.054C204.651 143.237 204.043 142.875 203.921 142.284C202.196 133.486 195.459 119.055 188.826 104.652C193.64 101.993 199.393 93.1386 196.724 84.6884C196.724 84.6884 214.873 81.0407 224.739 96.2534C234.614 111.459 239.952 134.319 238.083 148.995L238.086 148.997Z" fill="#E6E7E8"/>
<path d="M148.993 25.187C148.993 25.187 138.289 63.8749 152.485 72.9706" stroke="black" stroke-miterlimit="10"/>
<path d="M162.837 13.9766C162.837 13.9766 167.107 38.6582 184.451 36.3908C184.451 36.3908 179.514 50.1318 184.183 49.1999C188.852 48.2657 186.317 36.6584 195.924 36.9259C205.529 37.1935 202.863 50.8007 191.655 53.202L196.725 84.6884" stroke="black" stroke-miterlimit="10"/>
<path d="M161.067 102.805C160.567 102.713 160.062 102.584 159.557 102.413C152.051 99.8449 156.569 96.4765 156.569 96.4765C150.699 93.6739 156.569 90.4722 156.569 90.4722C149.631 85.9349 157.245 83.8223 157.245 83.8223C142.169 83.0219 152.485 72.9708 152.485 72.9708C160.541 80.8178 176.181 75.7969 176.181 75.7969C176.181 75.7969 182.319 55.5164 190.056 63.7883C190.056 63.7883 193.525 69.3912 188.187 73.9285C188.187 73.9285 178.047 79.5315 179.648 84.334C181.199 88.9887 201.374 129.66 203.926 142.638C204.043 143.232 204.651 143.594 205.226 143.413C218.134 139.354 229.814 145.706 229.814 145.706C227.042 173.418 208.559 179.399 199.201 180.638C194.778 181.225 190.246 180.728 186.169 178.918C157.238 166.085 169.775 101.41 169.775 101.41C169.775 101.41 165.597 103.629 161.064 102.802L161.067 102.805Z" stroke="black" stroke-miterlimit="10"/>
<path d="M200.647 132.061C200.647 132.061 204.553 142.68 204.91 147.393" stroke="black" stroke-miterlimit="10"/>
<path d="M229.814 147.863C229.814 147.863 237.52 149.419 238.086 148.997L230.089 145.511C230.089 145.511 230.131 147.408 229.814 147.863Z" fill="#231F20"/>
<path d="M152.131 42.3949C153.107 42.3949 153.898 41.6035 153.898 40.6274C153.898 39.6512 153.107 38.8599 152.131 38.8599C151.155 38.8599 150.363 39.6512 150.363 40.6274C150.363 41.6035 151.155 42.3949 152.131 42.3949Z" fill="black"/>
<path d="M167.74 42.3949C168.716 42.3949 169.508 41.6035 169.508 40.6274C169.508 39.6512 168.716 38.8599 167.74 38.8599C166.764 38.8599 165.973 39.6512 165.973 40.6274C165.973 41.6035 166.764 42.3949 167.74 42.3949Z" fill="black"/>
<path d="M159.367 38.1699C159.367 38.1699 154.454 52.0447 155.344 53.2019C156.234 54.3591 160.168 55.2042 160.168 55.2042" stroke="black" stroke-miterlimit="10"/>
<path d="M147.624 36.2148C147.624 36.2148 150.917 29.0109 155.987 36.5715" stroke="black" stroke-miterlimit="10"/>
<path d="M163.558 36.2148C163.558 36.2148 166.851 29.0109 171.921 36.5715" stroke="black" stroke-miterlimit="10"/>
<path d="M198.194 45.4371C198.194 45.4371 192.856 38.9492 188.589 48.5425" stroke="black" stroke-miterlimit="10"/>
<path d="M155.535 83.6811C155.535 83.6811 161.638 84.5566 167.107 82.8877" stroke="black" stroke-miterlimit="10"/>
<path d="M156.067 90.2915C156.067 90.2915 162.438 92.4251 168.841 90.0591" stroke="black" stroke-miterlimit="10"/>
<path d="M156.255 96.3192C156.255 96.3192 161.435 98.1289 165.872 96.0962" stroke="black" stroke-miterlimit="10"/>
<path d="M236.614 149.316C237.565 149.161 238.084 148.997 238.084 148.997C226.976 143.467 221.08 142.265 218.39 142.077C222.58 142.713 229.979 145.676 229.979 145.676L229.645 149.363C232.756 149.765 235.178 149.551 236.614 149.316Z" fill="black"/>
<path d="M220.488 189.544H0.439941" stroke="#231F20" stroke-miterlimit="10"/>
<path d="M161.32 65.8629C161.32 65.8629 165.865 69.3439 169.508 62.5649" stroke="black" stroke-miterlimit="10"/>
<path d="M77.2338 173.655L61.4764 154.485C61.0703 153.99 60.8168 153.389 60.7464 152.753L59.0352 137.223C58.8193 135.27 60.3498 133.564 62.3144 133.564C64.1359 133.564 65.6123 132.087 65.6123 130.266V125.442C65.6123 123.62 64.1359 122.144 62.3144 122.144H30.896C29.0746 122.144 27.5981 123.62 27.5981 125.442V130.266C27.5981 132.087 29.0746 133.564 30.896 133.564C32.8607 133.564 34.3888 135.27 34.1752 137.223L32.464 152.753C32.3936 153.389 32.1401 153.992 31.734 154.485L15.9767 173.655C15.4908 174.244 15.2256 174.986 15.2256 175.749V185.814C15.2256 187.636 16.702 189.112 18.5235 189.112H74.687C76.5085 189.112 77.9848 187.636 77.9848 185.814V175.749C77.9848 174.986 77.7197 174.244 77.2338 173.655Z" fill="white" stroke="black" stroke-miterlimit="10"/>
<path d="M39.9659 160.367H53.3783C55.1904 160.367 56.8993 161.208 58.0049 162.644L67.0912 174.434C67.8775 175.456 68.3047 176.711 68.3047 178C68.3047 181.227 65.6898 183.842 62.4623 183.842H31.9547C28.7272 183.842 26.1123 181.227 26.1123 178V177.803C26.1123 176.617 26.4738 175.458 27.1474 174.484L35.1563 162.891C36.2478 161.311 38.0435 160.37 39.9636 160.37L39.9659 160.367Z" fill="#01A1E4"/>
<path d="M45.5077 165.839C49.1207 165.839 52.0496 162.91 52.0496 159.297C52.0496 155.684 49.1207 152.755 45.5077 152.755C41.8947 152.755 38.9658 155.684 38.9658 159.297C38.9658 162.91 41.8947 165.839 45.5077 165.839Z" fill="#01A1E4"/>
<path d="M48.5426 143.114C50.9422 143.114 52.8874 141.169 52.8874 138.77C52.8874 136.37 50.9422 134.425 48.5426 134.425C46.1431 134.425 44.1978 136.37 44.1978 138.77C44.1978 141.169 46.1431 143.114 48.5426 143.114Z" fill="#01A1E4"/>
<path d="M38.9634 114.571C44.0141 114.571 48.1084 110.477 48.1084 105.426C48.1084 100.376 44.0141 96.2812 38.9634 96.2812C33.9128 96.2812 29.8184 100.376 29.8184 105.426C29.8184 110.477 33.9128 114.571 38.9634 114.571Z" fill="#01A1E4"/>
<path d="M45.3412 91.716C48.6249 91.716 51.2869 89.0541 51.2869 85.7704C51.2869 82.4867 48.6249 79.8247 45.3412 79.8247C42.0575 79.8247 39.3955 82.4867 39.3955 85.7704C39.3955 89.0541 42.0575 91.716 45.3412 91.716Z" fill="#01A1E4"/>
<path d="M102.453 183.056L80.832 100.359L159.837 96.4014L172.202 182.051L102.453 183.056Z" fill="#01A1E4"/>
<path d="M88.2966 154.247C88.2966 154.247 86.5479 156.071 89.9984 158.092C93.4489 160.116 99.3828 159.163 98.6176 157.259C97.85 155.355 95.8384 155.149 95.8384 155.149C95.8384 155.149 89.3317 156.468 88.2989 154.245L88.2966 154.247Z" fill="white" stroke="black" stroke-miterlimit="10"/>
<path d="M84.7285 136.458C84.7285 136.458 77.7688 142.546 84.7285 147.541C91.6881 152.539 102.871 151.705 100.85 147.541C98.8286 143.377 94.3078 143.854 93.8313 143.497C93.3548 143.14 84.7191 138.225 84.7285 136.458Z" fill="white" stroke="black" stroke-miterlimit="10"/>
<path d="M88.6371 130.819C88.6371 130.819 85.1208 129.289 84.1702 135.033C83.2195 140.776 93.6861 148.328 97.0192 143.6C100.35 138.873 97.8126 135.859 95.4324 135.699C93.0523 135.54 89.9327 135.767 89.5243 134.206C89.1159 132.643 88.6371 130.817 88.6371 130.817V130.819Z" fill="white" stroke="black" stroke-miterlimit="10"/>
<path d="M85.4093 148.004C85.4093 148.004 83.6934 150.638 86.0735 153.36C88.4537 156.083 97.2677 157.325 97.6128 154.06C97.9579 150.795 96.3171 150.969 96.3171 150.969C96.3171 150.969 86.5313 150.034 85.4093 148.004Z" fill="white" stroke="black" stroke-miterlimit="10"/>
<path d="M144.559 27.3936L181.878 27.9733C181.878 27.9733 188.38 52.7724 176.644 52.6151C164.907 52.4578 156.591 46.6882 156.591 46.6882C156.591 46.6882 144.561 55.9459 141.026 48.5449C135.839 37.6864 144.561 27.3936 144.561 27.3936H144.559Z" stroke="black" stroke-miterlimit="10"/>
<path d="M54.7163 37.7077L69.4878 54.6034L93.3268 45.5101L106.347 55.594L98.3523 35.229L71.8679 43.8599L55.9369 32.3911L54.7163 37.7077Z" fill="#43305E"/>
<path d="M53.4653 39.6816C58.0052 39.6816 61.6855 36.0013 61.6855 31.4614C61.6855 26.9215 58.0052 23.2412 53.4653 23.2412C48.9254 23.2412 45.2451 26.9215 45.2451 31.4614C45.2451 36.0013 48.9254 39.6816 53.4653 39.6816Z" fill="#01A1E4"/>
<path d="M70.7435 56.1361C74.6183 56.1361 77.7595 52.9949 77.7595 49.12C77.7595 45.2452 74.6183 42.104 70.7435 42.104C66.8686 42.104 63.7275 45.2452 63.7275 49.12C63.7275 52.9949 66.8686 56.1361 70.7435 56.1361Z" fill="#FFC600"/>
<path d="M99.2093 42.8695C103.084 42.8695 106.225 39.7283 106.225 35.8534C106.225 31.9786 103.084 28.8374 99.2093 28.8374C95.3345 28.8374 92.1934 31.9786 92.1934 35.8534C92.1934 39.7283 95.3345 42.8695 99.2093 42.8695Z" fill="#FFC600"/>
<path d="M106.988 63.3443C111.322 63.3443 114.835 59.8311 114.835 55.4974C114.835 51.1636 111.322 47.6504 106.988 47.6504C102.654 47.6504 99.1411 51.1636 99.1411 55.4974C99.1411 59.8311 102.654 63.3443 106.988 63.3443Z" fill="#01A1E4"/>
<path d="M148.512 28.0297L147.84 23.2389C147.84 23.2389 138.547 28.0766 137.118 22.1286C135.691 16.1806 135.648 4.28458 141.024 5.23523C146.397 6.18588 150.798 12.1339 156.567 6.4253C162.337 0.716711 168.524 -2.37701 176.376 3.57101C184.228 9.51902 183.751 12.7724 186.369 11.2654C188.986 9.75844 203.022 7.8548 203.736 15.23C204.45 22.6051 202.546 25.3092 204.45 28.8348C206.353 32.3604 205.64 37.7451 204.45 38.8601C203.26 39.975 201.701 43.5194 201.701 43.5194C201.701 43.5194 201.701 35.5128 193.389 37.1794C189.542 37.9517 187.803 43.4373 186.709 46.6859C185.019 51.7114 182.174 49.5214 182.193 47.038C182.211 44.5546 182.322 37.1184 182.322 37.1184C182.322 37.1184 169.506 36.5691 159.48 19.7508C159.48 19.7508 149.601 20.7085 148.509 28.0297H148.512Z" fill="black"/>
<path d="M159.837 96.4014L164.585 130.82L102.105 108.919L138.819 97.4553L159.837 96.4014Z" fill="#43305E"/>
<path d="M99.4907 97.6524L102.106 108.919L141.024 106.807L137.855 93.3662L99.4907 95.8825V97.6524Z" fill="#FFC600"/>
</svg>
