<svg width="238" height="174" viewBox="0 0 238 174" fill="none" xmlns="http://www.w3.org/2000/svg">
<path d="M175.848 0.122559H2.9852C1.42955 0.122559 0.168457 1.38366 0.168457 2.9393V124.688C0.168457 126.244 1.42955 127.505 2.9852 127.505H175.848C177.404 127.505 178.665 126.244 178.665 124.688V2.9393C178.665 1.38366 177.404 0.122559 175.848 0.122559Z" fill="#01A1E4"/>
<path d="M155.831 17.6401H23.0003C21.4447 17.6401 20.1836 18.9012 20.1836 20.4569V107.675C20.1836 109.231 21.4447 110.492 23.0003 110.492H155.831C157.386 110.492 158.647 109.231 158.647 107.675V20.4569C158.647 18.9012 157.386 17.6401 155.831 17.6401Z" fill="#FFC600" stroke="black" stroke-miterlimit="10"/>
<path d="M136.137 133.953L133.935 132.866L127.891 141.666C127.891 141.666 114.336 121.754 110.939 114.097C110.939 114.097 115.176 106.504 113.084 101.1C113.084 101.1 112.11 97.5652 104.749 96.0395C104.749 96.0395 102.233 94.7837 100.461 98.1544C100.461 98.1544 95.8576 94.5959 93.8554 98.0746C93.8554 98.0746 91.4213 101.016 92.3344 103.382C92.3344 103.382 89.4966 102.896 90.2383 106.346C90.2383 106.346 85.1634 108.004 89.3557 113.276C89.3557 113.276 88.7054 112.79 88.3158 112.996C87.7571 113.297 87.4215 114.447 87.668 115.548C87.9943 117.01 90.3086 120.4 92.3602 119.634C93.4728 119.221 92.3602 116.437 92.3602 116.437C92.3602 116.437 93.1888 116.613 93.7779 117.287C94.5643 118.191 95.2474 119.639 95.4586 119.944C97.3881 122.698 99.7001 120.803 99.7001 120.803C99.7001 120.803 100.684 154.538 113.185 165.78C113.185 165.78 123.833 178.328 137.184 170.73C137.184 170.73 144.029 166.988 146.395 161.756L136.139 133.95L136.137 133.953Z" fill="white"/>
<path d="M101.078 98.4903C101.078 98.4903 96.8625 95.2064 94.3814 97.5561C91.9003 99.9057 90.5177 102.422 93.6701 104.732C96.8225 107.041 98.9586 108.581 100.52 107.8C102.078 107.018 102.961 104.448 100.257 102.638C97.5549 100.828 96.9188 99.9785 96.9188 99.9785" stroke="black" stroke-miterlimit="10"/>
<path d="M92.1255 103.011C92.1255 103.011 89.5154 102.885 90.2384 106.347C90.959 109.809 94.9869 113.351 98.0994 113.321C100.395 113.297 101.449 109.372 99.6979 108.847C97.9468 108.319 97.6416 107.396 97.6416 107.396" stroke="black" stroke-miterlimit="10"/>
<path d="M90.236 106.347C90.236 106.347 86.64 107.279 87.9545 110.889C89.269 114.499 93.1184 116.499 95.0197 116.208C96.3014 116.01 95.7709 112.781 95.7709 112.781" stroke="black" stroke-miterlimit="10"/>
<path d="M92.3604 116.233L93.1514 116.724C93.7406 117.088 94.2124 117.616 94.4894 118.252C95.1631 119.806 96.8531 122.632 99.7003 120.808C99.7003 120.808 99.2638 156.041 117.127 169.371C134.989 182.701 149.615 158.275 149.615 158.275L135.841 130.096L127.894 141.668C127.894 141.668 113.549 121.327 110.941 114.1C110.941 114.1 114.134 108.647 113.667 104.309" stroke="black" stroke-miterlimit="10"/>
<path d="M88.931 112.71C88.931 112.71 87.208 113.32 87.6657 115.55C87.6657 115.55 89.2032 120.102 91.7735 119.747C92.5974 119.634 93.135 118.895 92.5435 117.416C92.5435 117.416 91.9636 116.257 92.1491 116.109C92.3345 115.961 92.9753 115.895 92.9753 115.895" stroke="black" stroke-miterlimit="10"/>
<path d="M100.911 100.143L87.5859 49.6621L89.7549 48.6763L107.864 112.661L105.106 114.158L100.911 100.143Z" fill="#43305E"/>
<path d="M111.382 98.8868C111.382 98.8868 105.636 92.6736 101.561 94.5819C98.9489 95.8049 101.695 99.7272 103.467 100.497C105.24 101.267 104.388 102.384 104.773 103.748C105.158 105.112 106.772 109.675 106.772 109.675C106.772 109.675 111.408 105.004 111.382 102.553C111.357 100.103 111.737 99.5769 111.382 98.8868Z" fill="white"/>
<path d="M104.587 102.147C104.587 102.147 104.827 102.91 104.348 103.809C103.869 104.708 101.806 110.715 107.092 110.999C112.378 111.283 112.47 106.105 111.535 103.886C110.601 101.668 105.77 101.199 104.587 102.147Z" fill="white"/>
<path d="M107.582 111.111C102.425 110.949 103.155 105.459 103.996 104.309C104.153 104.093 104.268 103.854 104.35 103.609C104.754 102.398 104.273 101.067 103.27 100.279C101.613 98.9759 100.644 98.943 100.489 96.9525C100.292 94.394 103.01 94.2179 103.01 94.2179C106.671 93.9104 111.537 99.0181 111.537 99.0181C111.537 99.0181 113.629 101.072 113.709 104.936" stroke="black" stroke-miterlimit="10"/>
<path d="M164.983 46.04C164.983 46.04 152.169 32.9892 157.286 29.0434C162.403 25.1 176.32 14.2532 185.205 22.1424C194.089 30.0292 189.798 28.4331 196.876 27.8603C203.953 27.29 214.055 37.1955 217.921 44.5566C221.787 51.9177 215.654 54.3353 214.076 58.1239C212.499 61.91 199.76 81.7093 196.15 83.7421C192.542 85.7748 171.281 52.0397 168.664 50.1384C166.046 48.2371 164.983 46.04 164.983 46.04Z" fill="black"/>
<path d="M173.764 108.544C169.992 99.2508 157.857 97.0186 151.014 104.354C149.625 105.842 148.127 107.626 146.444 109.771C137.552 121.104 132.468 129.209 132.468 129.209L146.385 163.942L171.438 138.098C177.574 131.77 179.393 122.416 176.078 114.248L173.764 108.546V108.544Z" fill="black"/>
<path d="M217.278 99.5019C217.278 99.5019 162.399 93.3168 156.406 100.213C150.416 107.109 150.435 173.176 150.435 173.176C150.435 173.176 183.834 173.174 210.473 173.176C229.388 173.176 228.191 121.339 227.139 111.818C226.088 102.297 217.276 99.4995 217.276 99.4995L217.278 99.5019Z" fill="#E5E6E8"/>
<path d="M177.585 87.7139L176.32 102.194C176.32 102.194 178.886 117.346 197.885 104.288L196.152 83.7423C196.152 83.7423 184.271 76.5855 177.588 87.7139H177.585Z" fill="white" stroke="black" stroke-miterlimit="10"/>
<path d="M166.077 42.9441C166.077 42.9441 148.735 87.0636 176.13 90.2958C187.676 91.6572 196.084 84.3783 200.415 79.3575C201.49 78.1134 202.326 76.7098 203.039 75.2497C203.624 74.0526 205.42 72.3508 210.922 72.5926C219.304 72.9588 216.463 64.0133 211.591 62.1613C206.72 60.3069 204.185 64.7104 204.185 64.7104C204.185 64.7104 199.422 64.7081 200.694 60.2506C201.964 55.7931 202.753 52.5468 193.601 55.0185C184.451 57.4902 183.16 47.5893 179.63 39.6414C177.848 35.6299 174.644 35.3178 171.907 35.9938C169.339 36.6276 167.466 38.7518 166.87 41.3292C166.727 41.9465 166.483 42.5333 166.077 42.9464V42.9441Z" fill="white" stroke="black" stroke-miterlimit="10"/>
<path d="M169.882 58.1347C169.913 57.4133 169.326 56.8017 168.569 56.7687C167.813 56.7356 167.174 57.2937 167.143 58.0151C167.111 58.7365 167.699 59.3481 168.455 59.3811C169.212 59.4141 169.85 58.8561 169.882 58.1347Z" fill="black"/>
<path d="M189.076 62.3608C189.107 61.6394 188.52 61.0279 187.763 60.9949C187.007 60.9618 186.368 61.5198 186.337 62.2412C186.305 62.9626 186.893 63.5741 187.649 63.6072C188.406 63.6402 189.044 63.0822 189.076 62.3608Z" fill="black"/>
<path d="M176.48 59.8516L172.466 70.4449L178.665 72.717" stroke="black" stroke-miterlimit="10"/>
<path d="M185.205 57.8988C185.205 57.8988 186.928 56.0514 190.376 58.1241" stroke="black" stroke-miterlimit="10"/>
<path d="M166.077 52.1829C166.077 52.1829 167.8 50.3356 171.248 52.4083" stroke="black" stroke-miterlimit="10"/>
<path d="M177.175 80.022C177.175 80.022 180.337 81.7332 185.355 79.1465" stroke="black" stroke-miterlimit="10"/>
<path d="M213.009 68.5293C213.009 68.5293 210.91 64.823 208.234 66.9355C205.558 69.0504 205.676 70.0551 205.676 70.0551" stroke="black" stroke-miterlimit="10"/>
<path d="M224.463 103.985C224.463 103.985 234.526 104.741 233.62 130.467C232.714 156.193 233.371 173.178 233.371 173.178H208.109V111.773C208.109 111.773 210.522 100.823 224.463 103.988V103.985Z" fill="white" stroke="black" stroke-miterlimit="10"/>
<path d="M203.495 106.793C207.659 98.3637 221.531 96.9271 228.407 103.34C233.817 108.384 237.852 117.919 237.711 131.467C237.448 157.001 237.169 151.846 237.169 151.846L199.319 151.854C199.319 151.854 194.739 124.501 203.492 106.79L203.495 106.793Z" fill="#E5E6E8"/>
<path d="M237.171 151.846H206.081C206.081 151.846 201.962 120.797 209.778 107.797" stroke="black" stroke-miterlimit="10"/>
<path d="M164.22 68.1703C169.96 68.1703 174.614 63.5169 174.614 57.7766C174.614 52.0362 169.96 47.3828 164.22 47.3828C158.48 47.3828 153.826 52.0362 153.826 57.7766C153.826 63.5169 158.48 68.1703 164.22 68.1703Z" stroke="black" stroke-miterlimit="10"/>
<path d="M187.855 73.8105C193.528 73.8105 198.126 69.2117 198.126 63.5388C198.126 57.8659 193.528 53.2671 187.855 53.2671C182.182 53.2671 177.583 57.8659 177.583 63.5388C177.583 69.2117 182.182 73.8105 187.855 73.8105Z" stroke="black" stroke-miterlimit="10"/>
<path d="M174.438 59.6639C174.438 59.6639 175.98 57.9926 178.045 60.4761" stroke="black" stroke-miterlimit="10"/>
<path d="M94.1322 67.6867C94.09 67.567 93.8904 67.5036 93.8294 67.6468C93.651 68.0575 93.4374 68.3979 93.1487 68.7406C92.9328 68.9988 92.6769 69.2593 92.6441 69.6091C92.6394 69.6537 92.6957 69.6818 92.7332 69.6607C93.0642 69.4565 93.3153 69.1021 93.5618 68.8086C93.6017 68.7617 93.6393 68.7124 93.6768 68.6631C93.421 69.9729 93.0971 71.2592 92.522 72.4728C92.1441 73.2685 91.6393 73.9938 91.0149 74.6112C90.569 75.0501 90.0596 75.2707 89.5432 75.5219C87.7569 74.0454 85.405 73.299 83.4756 74.191C81.1823 74.198 79.4029 76.32 78.6964 78.5499C78.3349 78.3903 77.9172 78.3151 77.5651 78.1414C76.8022 77.7682 76.1215 77.2284 75.4854 76.6744C74.2437 75.5993 73.2931 74.2567 72.3401 72.9305C72.3119 72.8389 72.2836 72.7474 72.2508 72.6605C73.1545 73.1816 74.077 73.5901 75.0652 73.9891C75.1427 74.0196 75.1755 73.907 75.1168 73.8647C74.1615 73.1629 73.0512 72.7943 72.0349 72.2193C72.0137 72.184 71.995 72.1465 71.9739 72.1136C71.9363 72.0573 71.8589 72.0103 71.7884 72.0385C71.7673 72.0456 71.6758 72.0714 71.7297 72.0643C71.603 72.0784 71.5466 72.2333 71.664 72.3108C71.6851 72.3249 71.7062 72.3343 71.7273 72.3484C71.7273 72.3578 71.7226 72.3671 71.7273 72.3742C71.8353 72.6465 71.9246 72.9094 71.9927 73.1934C72.1147 73.6934 72.1287 74.2262 72.3142 74.705C72.34 74.7707 72.4503 74.7895 72.4667 74.705C72.5395 74.3529 72.5325 73.9116 72.4621 73.475C73.3095 74.8341 74.246 76.1275 75.4267 77.233C76.0323 77.8011 77.5017 79.0451 78.5557 79.0498C78.4923 79.3104 78.4406 79.5686 78.4077 79.8245C78.1472 81.9323 78.6448 83.9439 79.7668 85.465C79.0978 86.7935 77.9218 87.7066 76.7693 88.6831C75.3116 89.9178 73.7296 91.0069 72.002 91.8238C72.3494 91.359 72.7507 90.8755 72.8822 90.3332C72.8916 90.2957 72.847 90.2699 72.8188 90.2957C72.2954 90.7628 71.9034 91.4552 71.502 92.0256C71.4339 92.1219 71.5255 92.2392 71.6265 92.2439C72.3588 92.2768 73.0747 92.5327 73.8094 92.596C73.8564 92.6007 73.8587 92.5326 73.8188 92.5186C73.1803 92.2744 72.6217 92.0421 71.9645 91.974C73.9526 91.2698 75.6708 90.0657 77.2786 88.7113C78.0251 88.0798 79.5485 87.0259 80.1001 85.8898C81.1446 87.0869 82.6234 87.9108 84.4661 88.1244C89.1465 88.662 93.4233 83.4815 92.0219 79.0405C91.6511 77.8668 90.8882 76.7448 89.9141 75.8411C91.0267 75.4444 91.9821 74.2074 92.522 73.3342C93.4093 71.8953 93.9937 70.0645 93.9468 68.3509C94.0946 68.9354 94.3035 69.4894 94.7941 69.8931C94.8317 69.9236 94.9091 69.8978 94.888 69.8391C94.6251 69.1232 94.3786 68.3979 94.1298 67.6773L94.1322 67.6867ZM90.5737 78.1579C90.1535 79.01 89.7287 79.8479 89.2428 80.6695C88.7639 81.4793 88.1372 82.3149 87.9729 83.2562C87.9635 83.3078 88.0316 83.3665 88.0739 83.3149C88.6771 82.5849 89.0645 81.66 89.5339 80.8408C89.9799 80.0615 90.4329 79.2541 90.7004 78.3926C90.9211 78.7987 91.1112 79.2212 91.2474 79.6555C91.2685 79.7188 91.2802 79.7822 91.2967 79.8479C91.1347 80.0592 91.008 80.3033 90.8836 80.5357C90.7193 80.8385 90.5315 81.2117 90.616 81.5638C90.6254 81.6061 90.684 81.6225 90.7145 81.5896C90.9634 81.322 91.1182 80.9464 91.3037 80.6319C91.3436 80.5638 91.3811 80.4958 91.421 80.4277C91.7849 82.89 90.1887 85.0706 88.0363 86.2208C88.2405 85.911 88.4142 85.58 88.5715 85.3101C89.0903 84.4204 89.5479 83.4815 89.9517 82.5356C89.9752 82.4816 89.9071 82.4393 89.8719 82.4886C89.325 83.2468 88.886 84.0777 88.4002 84.8758C88.0481 85.4579 87.4941 86.0048 87.1701 86.6128C86.8274 86.7442 86.4777 86.8499 86.1232 86.9273C86.3744 86.4391 86.588 85.925 86.7992 85.4298C86.8204 85.3781 86.7547 85.3359 86.7219 85.3852C86.3933 85.8922 86.0411 86.4203 85.7993 86.986C85.5411 87.0306 85.2806 87.0635 85.0201 87.0752C85.1069 86.8499 85.1773 86.6152 85.2665 86.4062C85.4566 85.9603 85.6608 85.533 85.7853 85.0612C85.797 85.0143 85.7337 84.9885 85.7102 85.0284C85.4332 85.479 85.1632 85.9344 84.9073 86.3992C84.7923 86.6081 84.6656 86.8405 84.5952 87.0776C84.1774 87.0682 83.7643 87.0142 83.3629 86.9085C83.3605 86.9085 83.3581 86.9085 83.3558 86.9062C83.4614 86.6715 83.5389 86.418 83.6328 86.1832C83.8558 85.6199 84.1022 85.0683 84.3252 84.5049C84.3487 84.4486 84.2548 84.4087 84.2266 84.4627C83.9825 84.9439 83.7149 85.4133 83.4685 85.8945C83.3229 86.1786 83.1399 86.4907 83.046 86.8147C82.6563 86.6832 82.2972 86.5095 81.9709 86.303C82.0742 86.0823 82.1588 85.8476 82.2573 85.641C82.4146 85.3124 82.5953 84.965 82.5976 84.5941C82.5976 84.5425 82.5249 84.5214 82.4991 84.5683C82.2948 84.958 82.1095 85.3594 81.9005 85.749C81.8348 85.8711 81.7643 85.9978 81.708 86.1293C81.2644 85.8053 80.8841 85.4133 80.5672 84.972C80.7996 84.58 81.0202 84.1834 81.2432 83.782C81.4709 83.3735 81.7385 82.937 81.7714 82.4605C81.7737 82.4252 81.7245 82.4041 81.701 82.4299C81.3747 82.8337 81.1236 83.3149 80.8443 83.7515C80.6424 84.0683 80.4804 84.3664 80.3748 84.6927C80.126 84.3031 79.9194 83.8853 79.7574 83.4416C79.917 83.1247 80.0649 82.7985 80.2268 82.4933C80.5437 81.9042 80.8794 81.322 81.1048 80.6906C81.1212 80.6483 81.0578 80.6249 81.0343 80.6601C80.6799 81.2187 80.3653 81.8056 80.0414 82.383C79.9123 82.6154 79.7692 82.8524 79.6377 83.0942C79.2974 81.9886 79.2105 80.7845 79.3654 79.6555C79.6189 77.8222 80.4405 76.489 81.6869 75.6979C81.6353 75.7895 81.7526 75.8881 81.8395 75.8388C81.877 75.8177 81.9169 75.7989 81.9568 75.7777C81.8066 76.0266 81.6611 76.2777 81.5156 76.5148C81.1283 77.1439 80.7316 77.7987 80.6635 78.5452C80.6588 78.5968 80.7269 78.6039 80.7527 78.5687C81.2268 77.9161 81.5414 77.1462 81.9498 76.4491C82.1423 76.1204 82.37 75.7965 82.5718 75.4632C83.0953 75.2191 83.6211 75.0313 84.1516 74.9139C84.0271 75.0712 83.9168 75.2402 83.8112 75.3975C83.513 75.8505 83.2854 76.327 83.1587 76.8551C83.1493 76.8974 83.2056 76.9373 83.2361 76.8998C83.5084 76.5711 83.7243 76.212 83.9332 75.8388C84.121 75.5055 84.3769 75.1933 84.5811 74.8646C84.7196 74.8576 84.8581 74.8482 85.0013 74.8506C85.0694 74.8506 85.1092 74.8201 85.135 74.7825C85.4378 74.7731 85.7454 74.7966 86.0529 74.8412C85.8346 75.1768 85.6985 75.6087 85.5482 75.9326C85.5271 75.9772 85.5833 76.0289 85.6209 75.989C85.8885 75.6956 86.2735 75.3247 86.4449 74.9163C86.7711 74.9914 87.1021 75.0947 87.4377 75.2449C87.6889 75.3576 87.9307 75.4937 88.1654 75.6392C88.0856 75.7449 88.0175 75.8622 87.9659 75.9632C87.6889 76.4936 87.2664 77.1321 87.3556 77.7495C87.3626 77.7988 87.4307 77.8082 87.4612 77.7776C87.9237 77.3387 88.0222 76.6462 88.3203 76.0993C88.3555 76.0336 88.4095 75.9374 88.4517 75.8364C88.7991 76.0805 89.1254 76.3599 89.4258 76.6627C89.1089 77.2026 88.7827 77.7307 88.5973 78.3316C88.5856 78.3715 88.6396 78.402 88.6654 78.3715C89.001 77.9912 89.5526 77.4842 89.67 76.9256C90.0103 77.3035 90.3108 77.7189 90.569 78.1555L90.5737 78.1579Z" fill="black"/>
<path d="M139.677 82.8336C139.677 82.8336 139.667 82.8313 139.663 82.8266C139.686 82.5731 139.573 82.2867 139.501 82.0566C139.395 81.728 139.221 81.4088 138.942 81.1975C138.909 81.1741 138.862 81.214 138.874 81.2492C138.982 81.5473 139.113 81.8336 139.21 82.1364C139.261 82.3008 139.278 82.4956 139.313 82.6787C137.977 81.1811 135.585 80.5403 133.686 80.3173C132.891 80.2234 131.149 79.7352 130.236 80.1999C130.196 79.822 130.123 79.4464 130.006 79.0756C128.943 75.7049 124.628 72.752 121.455 74.2191C119.978 74.2238 118.715 75.1087 117.812 76.3316C117.34 76.1157 116.824 75.9772 116.359 75.7307C115.594 75.3246 114.92 74.766 114.288 74.1768C113.22 73.1792 112.331 71.9845 111.486 70.792C112.141 71.1559 112.805 71.3906 113.577 71.5361C113.631 71.5455 113.671 71.4704 113.617 71.4422C112.793 71.0596 111.969 70.6277 111.181 70.1724C111.061 70.1043 110.894 70.1888 110.899 70.3343C110.934 71.4704 111.284 72.752 111.692 73.8083C111.723 73.8858 111.828 73.8717 111.836 73.7895C111.934 72.7755 111.458 71.7802 111.312 70.7685C112.066 72.1041 112.953 73.3341 114.021 74.442C114.835 75.2871 116.213 76.5476 117.514 76.7635C116.913 77.7142 116.514 78.815 116.385 79.8572C116.105 82.113 116.692 84.2607 117.988 85.8123C117.108 86.6338 116.335 87.6009 115.495 88.453C114.464 89.4952 113.258 90.3942 112.242 91.4411C112.246 91.3002 112.242 91.1594 112.253 91.0186C112.277 90.6383 112.361 90.2486 112.338 89.8707C112.338 89.8379 112.289 89.8191 112.272 89.8543C111.96 90.474 111.981 91.3261 111.969 92.0044C111.969 92.096 112.051 92.1406 112.134 92.1288C112.84 92.0232 113.486 92.0373 114.157 91.7439C114.206 91.7228 114.178 91.65 114.131 91.65C113.497 91.6523 112.927 91.6688 112.331 91.8143C113.535 91.1265 114.57 89.9787 115.535 89.0046C116.439 88.0939 117.42 87.0939 118.154 86.0048C119.194 87.1596 120.645 87.953 122.448 88.1596C123.553 88.2863 124.635 88.0915 125.626 87.6667C126.574 89.8027 128.384 91.2322 130.722 91.7744C130.271 92.0373 129.893 92.3565 129.579 92.7931C129.55 92.833 129.604 92.8847 129.644 92.8588C130.142 92.5255 130.649 92.1781 131.175 91.8894C131.257 91.8448 131.269 91.7486 131.234 91.6711C131.065 91.2932 130.823 90.9294 130.565 90.6054C130.541 90.5749 130.499 90.6031 130.496 90.6336C130.473 90.9528 130.64 91.2181 130.79 91.4904C129.966 90.9341 128.851 90.758 127.992 90.2674C126.9 89.6454 126.405 88.5938 125.825 87.5798C128.454 86.3522 130.379 83.4767 130.262 80.6037C131.459 80.2844 132.778 80.5872 133.977 80.7868C134.926 80.944 135.853 81.1811 136.754 81.5168C137.595 81.8289 138.235 82.559 139.029 82.904C138.829 82.9956 138.691 83.127 138.526 83.2866C138.498 83.3148 138.519 83.3688 138.559 83.3688C138.796 83.3594 139.001 83.3641 139.224 83.2725C139.393 83.2021 139.63 83.1481 139.707 82.9627C139.728 82.9111 139.721 82.8641 139.672 82.8336H139.677ZM121.344 86.939C118.178 86.1127 116.948 82.6364 117.354 79.6859C117.608 77.8527 118.429 76.5194 119.675 75.7284C119.624 75.8199 119.741 75.9185 119.828 75.8692C120.65 75.4021 121.473 75.0641 122.309 74.9068C122.53 74.8904 122.753 74.8786 122.983 74.8833C123.051 74.8833 123.091 74.8528 123.117 74.8153C123.868 74.7895 124.633 74.9209 125.419 75.2777C127.224 76.0945 128.637 77.8151 129.224 79.6835C130.626 84.1528 125.33 87.9812 121.34 86.9413L121.344 86.939Z" fill="black"/>
<path d="M135.025 34.1158C135.025 34.1158 135.025 34.1135 135.025 34.1111C135.025 33.9961 134.917 33.9233 134.811 33.9468C134.334 34.0571 133.82 34.1698 133.367 34.3552C133.318 34.374 133.299 34.4632 133.367 34.4749C133.656 34.5219 133.954 34.4796 134.25 34.4162C133.086 35.158 131.98 36.0734 131.093 37.1086C130.199 38.1508 129.257 39.3432 128.872 40.6882C127.091 38.3597 123.927 36.8199 121.455 37.963C119.38 37.97 117.723 39.707 116.903 41.6905C116.3 41.4041 115.577 41.2844 114.965 41.0614C114.038 40.7234 113.155 40.2751 112.31 39.7657C110.707 38.7986 109.477 37.5076 108.228 36.1532C109.085 36.334 109.866 36.7894 110.782 36.7588C110.848 36.7588 110.859 36.6649 110.796 36.6462C109.751 36.334 108.855 35.7307 107.733 35.6955C107.547 35.6885 107.5 35.9021 107.597 36.0241C108.183 36.7635 108.212 37.74 108.711 38.5005C108.73 38.5287 108.782 38.531 108.789 38.4911C108.883 37.9442 108.697 37.2682 108.42 36.6767C109.388 38.0545 110.711 39.2023 112.106 40.1107C112.878 40.6131 113.711 41.0168 114.561 41.3712C115.216 41.6459 116.007 42.0074 116.756 42.0637C116.573 42.5754 116.446 43.0965 116.382 43.6035C116.345 43.911 116.328 44.2161 116.321 44.5166C115.763 44.4837 115.183 44.4814 114.652 44.6105C114.594 44.6246 114.587 44.7044 114.636 44.7349C115.148 45.0471 115.758 44.9649 116.324 44.8147C116.371 48.399 118.624 51.4646 122.446 51.9035C127.126 52.441 131.403 47.2606 130.001 42.8195C129.802 42.1881 129.49 41.5708 129.091 40.9957C129.76 39.4746 130.654 38.1203 131.825 36.9137C132.428 36.2894 133.116 35.7495 133.823 35.2472C134.069 35.0711 134.325 34.9373 134.548 34.7707C134.558 34.9984 134.595 35.2261 134.644 35.4467C134.656 35.5007 134.736 35.496 134.748 35.4467C134.856 35.0383 135.048 34.6533 135.001 34.2285C135.006 34.2167 135.013 34.2073 135.018 34.1956C135.029 34.1674 135.027 34.1416 135.018 34.1182L135.025 34.1158ZM129.229 43.4204C130.63 47.8897 125.335 51.7181 121.345 50.6782C118.178 49.852 116.948 46.3756 117.354 43.4251C117.608 41.5919 118.429 40.2586 119.676 39.4676C119.624 39.5591 119.741 39.6577 119.828 39.6084C120.65 39.1413 121.474 38.8033 122.309 38.646C122.53 38.6296 122.753 38.6202 122.983 38.6226C123.051 38.6226 123.091 38.5921 123.117 38.5545C123.868 38.5287 124.633 38.6601 125.42 39.0169C127.225 39.8338 128.638 41.5543 129.224 43.4228L129.229 43.4204Z" fill="black"/>
<path d="M86.755 82.1623C86.0414 80.9206 85.6259 79.5475 85.1119 78.2166C85.0321 78.01 84.7011 77.895 84.5837 78.1485C83.9758 79.47 83.558 80.8643 82.8186 82.1248C82.7482 82.2445 82.8679 82.4417 83.0158 82.3806C83.5252 82.167 83.8068 81.5192 84.0274 81.0098C84.2926 81.1201 84.619 81.0896 84.9031 81.1014C85.1613 81.1107 85.3795 81.1248 85.5978 81.1061C85.7927 81.5661 86.0038 82.0191 86.262 82.4534C86.4498 82.7703 86.9404 82.4863 86.755 82.1647V82.1623ZM85.0673 80.5897C84.802 80.5803 84.4782 80.5427 84.1989 80.6037C84.4172 80.0967 84.612 79.578 84.8162 79.0639C85.0063 79.5803 85.1917 80.1014 85.3936 80.6131C85.2927 80.6014 85.1871 80.5944 85.065 80.5897H85.0673Z" fill="black"/>
<path d="M82.7923 77.9278C82.7829 77.8973 82.7407 77.8809 82.7172 77.909C82.614 78.0288 82.5059 78.1086 82.4425 78.2611C82.3768 78.4161 82.3417 78.5804 82.2971 78.74C82.283 78.7869 82.3416 78.8174 82.3768 78.7869C82.5153 78.6602 82.6609 78.5545 82.7712 78.3996C82.8768 78.2494 82.8439 78.0851 82.7923 77.9302V77.9278Z" fill="black"/>
<path d="M123.762 81.4485C124.116 81.1809 124.314 80.7702 124.199 80.1998C124.001 79.2092 122.879 78.8595 122.039 79.2139C121.898 79.275 121.837 79.3759 121.861 79.5308C122.034 80.6998 121.778 81.8781 121.882 83.0329C121.872 83.0329 121.863 83.0329 121.856 83.0329C121.769 83.0306 121.736 83.155 121.811 83.1949C121.84 83.2113 121.872 83.2254 121.903 83.2395C121.905 83.263 121.908 83.2888 121.91 83.3123C121.91 83.3123 121.915 83.3099 121.917 83.3076C121.952 83.4249 122.112 83.4649 122.185 83.3545C123.152 83.6785 124.621 83.5681 124.893 82.4555C125.046 81.8311 124.417 81.5635 123.764 81.4485H123.762ZM122.666 81.3594C122.584 81.3687 122.525 81.4086 122.487 81.4626C122.504 80.8429 122.459 80.2209 122.386 79.6458C123.668 79.3336 124.309 81.1903 122.666 81.3594ZM124.372 82.5095C124.116 83.0775 123.018 83.0776 122.276 83.0494C122.386 82.6316 122.45 82.1879 122.476 81.7326C122.511 81.7889 122.572 81.8311 122.666 81.8311C123.02 81.8311 124.668 81.8523 124.372 82.5095Z" fill="black"/>
<path d="M113.88 81.2023C110.596 80.9512 107.237 81.0967 103.949 81.1554C100.613 81.2141 97.2566 81.2822 93.9281 81.4934C93.9727 81.4371 94.0103 81.3878 94.0314 81.3643C94.2661 81.0991 94.5901 80.8456 94.6981 80.4958C94.7169 80.4348 94.6487 80.3996 94.5994 80.4207C94.3271 80.5404 93.0714 81.4277 93.3343 81.8173C93.224 82.1037 93.4986 82.5074 93.6911 82.7609C93.8601 82.9863 94.2919 83.6224 94.6487 83.4135C95.0313 83.1905 94.4375 82.7774 94.2873 82.6201C94.1324 82.4582 93.9891 82.2492 93.8318 82.0685C97.0734 81.8032 100.299 81.592 103.552 81.5028C106.984 81.4089 110.46 81.538 113.882 81.2751C113.929 81.2704 113.929 81.2047 113.882 81.2023H113.88Z" fill="black"/>
<path d="M95.1062 64.154C94.9395 63.4146 94.1392 62.9334 93.4608 63.3512C93.0547 63.6 92.6791 64.6797 93.1603 64.9802C93.2964 65.2642 93.5828 65.5013 93.8974 65.567C94.7213 65.7431 95.2729 64.884 95.1086 64.1563L95.1062 64.154ZM94.0076 65.1938C93.5968 65.1938 93.4138 64.8722 93.3621 64.5295C93.3457 64.269 93.3786 64.0108 93.5594 63.7878C93.9255 63.3371 94.4959 63.7197 94.6672 64.1328C94.8714 64.6211 94.5639 65.1938 94.0076 65.1915V65.1938Z" fill="black"/>
<path d="M70.0353 68.4472C69.4226 68.5481 69.0235 69.2711 68.9461 69.8321C68.9015 70.1583 68.9485 70.4705 69.155 70.7334C69.3123 70.9353 69.5095 70.9893 69.7161 70.9682C69.8616 71.0879 70.0494 71.1512 70.2724 71.1207C70.7348 71.0597 71.061 70.6348 71.1948 70.2194C71.4154 69.5293 70.8991 68.3063 70.0353 68.4495V68.4472ZM70.3592 70.6231C70.2042 70.7287 70.0517 70.7498 69.9085 70.7123C69.6221 70.5597 69.4109 70.325 69.4273 69.9753C69.4438 69.6091 69.6644 69.1819 69.9813 68.9894C70.3944 68.7382 70.7184 69.4283 70.7606 69.757C70.8029 70.095 70.6361 70.4306 70.3592 70.6208V70.6231Z" fill="black"/>
<path d="M69.4131 91.6784C69.0211 91.2536 68.2535 91.3803 67.831 91.6784C67.2958 92.0563 67.1622 92.9765 67.8264 93.2957C67.8452 93.3051 67.8663 93.3051 67.8874 93.3004C68.1691 93.5211 68.554 93.575 68.892 93.46C69.5516 93.2347 69.9061 92.2136 69.4108 91.6784H69.4131ZM68.9367 92.9295C68.7513 93.129 68.4296 93.1455 68.1949 93.0375C67.9977 92.946 67.9203 92.7957 67.8428 92.6385C67.8217 92.4507 67.8428 92.2699 68.0048 92.1103C68.2301 91.8826 68.662 91.7794 68.9578 91.9085C69.3686 92.0892 69.169 92.6831 68.939 92.9295H68.9367Z" fill="black"/>
<path d="M126.126 63.2809C126.952 59.8961 128.107 55.7719 127.018 52.3332C127.004 52.2862 126.94 52.3073 126.948 52.3519C127.548 55.9409 126.619 59.3257 125.823 62.802C125.138 65.8066 123.952 68.7172 122.596 71.4706C122.6 70.9213 122.6 70.365 122.457 69.8533C122.445 69.8087 122.382 69.8087 122.368 69.8533C122.136 70.6537 122.183 71.5809 122.218 72.4048C122.222 72.5221 122.34 72.6371 122.464 72.5925C123.286 72.2991 124.051 71.994 124.823 71.5832C124.873 71.5574 124.837 71.4823 124.786 71.4964C124.159 71.663 123.549 71.8156 122.941 72.0128C123.57 71.3414 123.804 70.0293 124.112 69.2688C124.905 67.3135 125.624 65.3371 126.124 63.2832L126.126 63.2809Z" fill="black"/>
<path d="M109.981 92.3422C109.937 91.8728 109.751 91.2085 109.186 91.1498C108.777 91.1076 108.526 91.4198 108.373 91.8446C108.287 91.6568 108.165 91.4996 107.993 91.4057C107.639 91.2108 107.277 91.5794 107.085 91.8282C106.702 92.3235 106.578 93.1262 106.808 93.7037C106.831 93.7624 106.921 93.7741 106.939 93.7037C107.045 93.2905 107.082 92.8704 107.216 92.4643C107.322 92.1498 107.742 91.4878 107.951 92.0488C108.122 92.5112 108.129 93.037 108.16 93.53C108.16 93.5863 108.165 93.638 108.169 93.6826C108.195 93.9736 108.646 93.9783 108.625 93.6826C108.596 93.3586 108.695 91.3869 109.228 91.6287C109.618 91.8047 109.561 92.6239 109.557 92.9666C109.552 93.26 109.453 93.6872 109.671 93.9314C109.697 93.9595 109.737 93.9525 109.763 93.9314C110.143 93.6332 110.021 92.7507 109.981 92.3422Z" fill="black"/>
<path d="M110.566 89.0141C110.265 89.2183 110.021 89.4882 109.967 89.8568C109.96 89.9014 110.005 89.953 110.052 89.9201C110.176 89.8333 110.291 89.7323 110.411 89.6384C110.385 89.9436 110.371 90.2534 110.422 90.5468C110.432 90.5985 110.512 90.6079 110.533 90.5609C110.737 90.1408 110.943 89.6877 110.913 89.2089C110.904 89.0469 110.721 88.9061 110.568 89.0094L110.566 89.0141Z" fill="black"/>
<path d="M135.109 90.9621C134.522 90.8987 134.12 91.2203 133.876 91.6733C133.775 91.3752 133.606 91.1405 133.322 91.0794C132.28 90.8564 132.067 92.9033 132.257 93.4972C132.276 93.5511 132.362 93.5605 132.377 93.4972C132.452 93.1333 132.501 92.7695 132.585 92.408C132.635 92.1968 133.092 91.0677 133.414 91.6334C133.555 91.8822 133.599 92.2108 133.606 92.5371C133.571 92.7765 133.564 93.016 133.585 93.2272C133.611 93.4878 133.98 93.4948 133.994 93.2272C134.001 93.0793 134.01 92.8775 134.008 92.6545C134.083 92.0677 134.351 91.4339 134.954 91.4081C135.923 91.3705 135.482 92.8376 135.811 93.3141C135.836 93.3516 135.886 93.3587 135.921 93.3282C136.611 92.7319 135.994 91.0607 135.109 90.9644V90.9621Z" fill="black"/>
<path d="M136.951 90.2298C136.763 90.1547 136.564 90.1054 136.36 90.0702C136.409 89.8613 136.456 89.6477 136.416 89.4364C136.364 89.1712 135.991 89.1219 135.923 89.4012C135.916 89.427 135.93 89.4575 135.958 89.4646C135.994 89.4716 136.092 89.4857 136.083 89.4716C136.104 89.5045 136.083 89.6125 136.08 89.6477C136.066 89.805 136.024 89.9881 135.956 90.1289C135.9 90.2463 135.947 90.373 136.073 90.4176C136.367 90.5162 136.707 90.5209 136.963 90.3237C136.998 90.2955 136.994 90.2486 136.951 90.2322V90.2298Z" fill="black"/>
<path d="M124.185 46.0378C123.941 46.0025 123.807 46.0683 123.584 46.1809C123.297 46.3288 122.988 46.2819 122.708 46.1481C122.093 45.8476 121.896 45.0707 122.063 44.4557C122.18 44.0238 122.64 43.6858 122.995 43.4557C123.415 43.1811 123.762 43.0825 123.992 43.5849C124.013 43.6271 124.072 43.6083 124.086 43.5731C124.295 42.9933 123.786 42.7093 123.272 42.8596C122.676 43.0333 121.976 43.5895 121.72 44.1623C121.368 44.9557 121.598 45.9814 122.251 46.5518C122.774 47.0072 124.194 47.0964 124.305 46.1997C124.314 46.134 124.248 46.0495 124.182 46.0401L124.185 46.0378Z" fill="black"/>
<path d="M138.083 30.6066C137.376 30.4916 136.564 31.2005 136.947 31.8342C136.651 32.3929 136.89 33.1558 137.388 33.5243C138.141 34.0806 138.925 33.2238 139.071 32.5337C139.23 31.7803 138.946 30.7474 138.08 30.6066H138.083ZM138.536 32.4868C138.439 32.9398 138.019 33.3506 137.547 33.0807C137.217 32.8929 137.08 32.4164 137.085 32.008C137.09 32.0126 137.092 32.0173 137.097 32.022C137.137 32.0596 137.205 32.0338 137.205 31.9774C137.205 31.4916 137.623 30.9352 138.158 31.1747C138.606 31.3742 138.62 32.0877 138.536 32.4868Z" fill="black"/>
<path d="M103.054 32.1181C101.935 32.5195 101.77 34.1767 102.538 34.9583C102.55 34.97 102.564 34.9724 102.58 34.9701C102.763 35.3175 103.038 35.6085 103.418 35.7611C104.496 36.1883 105.057 34.9325 105.141 34.0663C105.249 32.9678 104.202 31.7073 103.054 32.1181ZM104.622 34.2447C104.507 34.8785 104.108 35.6531 103.378 35.2423C102.975 35.017 102.702 34.571 102.545 34.1133C102.51 33.5711 102.561 33.0171 103.003 32.6908C103.956 31.9866 104.77 33.4326 104.625 34.2447H104.622Z" fill="black"/>
<path d="M99.1884 42.3429C98.3129 41.9063 97.3927 41.6434 96.4726 41.3195C96.428 41.3031 96.4045 41.3688 96.4421 41.3923C97.28 41.9204 98.2119 42.1575 99.1602 42.4086C99.1978 42.418 99.2236 42.364 99.186 42.3453L99.1884 42.3429Z" fill="black"/>
<path d="M104.615 43.4089C103.934 43.092 103.101 42.9442 102.352 43.0052C102.312 43.0075 102.284 43.0709 102.329 43.092C103.014 43.4042 103.843 43.4606 104.587 43.5145C104.641 43.5192 104.664 43.4347 104.615 43.4113V43.4089Z" fill="black"/>
<path d="M110.556 44.1599C110.063 44.0707 109.469 43.9416 108.974 44.0825C108.929 44.0942 108.922 44.1552 108.962 44.1787C109.422 44.4533 110.063 44.3313 110.556 44.2421C110.596 44.235 110.596 44.1693 110.556 44.1623V44.1599Z" fill="black"/>
<path d="M93.5479 39.1532C92.9869 38.7354 92.149 39.0687 91.6913 39.4865C91.4425 39.7142 91.2758 40.0287 91.2734 40.3667C91.2734 40.6484 91.419 40.9935 91.6748 41.1296C91.7311 41.2517 91.8087 41.369 91.9213 41.4699C92.2711 41.7892 92.7757 41.8033 93.1701 41.5662C93.8367 41.1648 94.2733 39.693 93.5479 39.1508V39.1532ZM93.1772 40.9676C92.9753 41.2939 92.5926 41.3807 92.2452 41.2634C92.1255 41.2235 92.0316 41.1531 91.9565 41.0662C91.9565 41.0639 91.9565 41.0615 91.9565 41.0592C91.9307 40.8925 91.8251 40.7634 91.757 40.6202C91.7359 40.4864 91.7335 40.3456 91.757 40.2165C91.7617 40.1954 91.7476 40.1789 91.7335 40.1742C91.7781 40.0569 91.8509 39.9466 91.9401 39.8574C92.2265 39.5593 92.7382 39.3386 93.149 39.4466C93.7616 39.6085 93.3767 40.6437 93.1772 40.9676Z" fill="black"/>
<path d="M108.582 67.3512C108.2 67.3254 107.798 67.4685 107.427 67.3465C107.113 67.2432 106.941 66.8935 106.857 66.6001C106.65 65.8748 106.953 65.0415 107.77 64.9476C107.801 64.9429 107.81 64.9006 107.777 64.8912C106.718 64.5931 106.298 65.809 106.427 66.6446C106.582 67.6375 107.972 68.5178 108.648 67.4615C108.681 67.4099 108.636 67.3535 108.585 67.3488L108.582 67.3512Z" fill="black"/>
<path d="M110.958 66.088C110.674 65.6115 110.117 65.1609 109.545 65.1515C109.265 65.1468 109.014 65.304 108.885 65.5505C108.81 65.6937 108.763 65.8697 108.775 66.0317C108.791 66.2383 108.871 66.3861 108.96 66.5504C108.965 66.8133 109.031 67.0692 109.223 67.2758C109.563 67.6419 110.085 67.6443 110.533 67.4941C111.183 67.2758 111.277 66.6279 110.955 66.0904L110.958 66.088ZM110.509 66.9659C110.27 67.1255 109.852 67.2077 109.592 67.0856C109.369 66.9823 109.237 66.7195 109.162 66.4472C109.193 66.3603 109.223 66.2735 109.237 66.1819C109.254 66.074 109.291 65.9472 109.326 65.8392C109.369 65.7031 109.446 65.6749 109.545 65.6726C109.855 65.6655 110.223 65.9707 110.441 66.2359C110.648 66.4847 110.763 66.7993 110.509 66.9683V66.9659Z" fill="black"/>
<path d="M112.808 66.2312C112.683 66.1585 112.566 66.1115 112.441 66.0739C112.582 65.811 112.657 65.5247 112.61 65.2219C112.559 64.8886 112.181 64.6468 111.866 64.797C111.829 64.8158 111.822 64.8745 111.852 64.9026C112.026 65.0505 112.223 65.121 112.237 65.3792C112.251 65.6256 112.113 65.8815 111.951 66.0575C111.833 66.1819 111.892 66.3627 112.045 66.4167C112.326 66.5176 112.552 66.4683 112.805 66.3228C112.84 66.304 112.838 66.2523 112.805 66.2312H112.808Z" fill="black"/>
<path d="M63.665 66.4848C61.3412 62.1728 59.055 57.7834 57.2664 53.225C57.0974 52.5795 56.9518 51.9269 56.8579 51.2509C56.8579 50.6383 56.8579 50.028 56.8556 49.4177C56.8955 49.352 56.9237 49.2745 56.9237 49.1806C56.9237 47.0141 56.9307 44.8452 56.9237 42.6787C57.3955 40.106 56.3908 37.1532 57.4659 34.7049C57.8743 33.7754 58.7006 33.1088 58.7898 32.2215C58.9518 31.7896 58.8743 31.3084 58.3907 30.7991C56.6303 28.9447 52.7948 29.2099 50.9217 30.7427C50.4053 31.1652 50.1518 31.6863 50.2222 32.2168C50.1894 32.4022 50.1893 32.5877 50.255 32.7543C50.708 33.935 51.5296 34.1956 51.6775 35.672C51.8183 37.078 51.809 38.5005 51.8066 39.9112C51.8066 40.2516 51.7901 40.6013 51.7713 40.9534C51.7713 40.9534 51.7713 40.9557 51.7713 40.9581V40.9745C51.7385 41.5989 51.7103 42.235 51.7619 42.85C51.7408 46.0517 51.7479 49.2557 51.7643 52.4574C51.4169 53.847 50.9593 55.0958 50.2081 56.4056C49.2457 58.0862 48.2153 59.7293 47.1871 61.3724C45.4243 64.1915 43.0629 66.9096 41.624 69.8954C40.7673 71.6723 42.9432 73.2426 44.131 74.1275C45.3633 75.0477 46.9594 75.7073 48.5767 75.942C50.7597 76.5758 53.1422 76.7565 55.412 76.7213C56.7007 76.787 57.9893 76.7729 59.2756 76.6509C61.0244 76.4866 62.7895 76.0664 64.2847 75.1157C64.6086 74.9115 64.8973 74.6651 65.1555 74.3928C65.8785 74.0759 66.4865 73.59 66.5264 72.7028C66.6297 70.4987 64.6627 68.3321 63.6674 66.4895L63.665 66.4848ZM51.2878 32.367C50.6963 31.86 51.9169 31.1582 52.1798 31.0173C53.4779 30.3155 57.1583 29.9587 57.8696 31.7122C58.271 32.7051 55.5693 33.2285 55.0294 33.32C54.5694 33.3975 54.0131 33.4491 53.445 33.4397C53.1516 33.2825 52.8558 33.1299 52.5131 33.0172C52.0718 32.8717 51.6422 32.6722 51.2878 32.3694V32.367ZM52.6188 54.4526C52.7643 54.1545 52.7643 53.7508 52.7033 53.3189C52.7244 49.8332 52.7314 46.3451 52.7055 42.8594C52.7431 42.3735 52.7315 41.8782 52.7455 41.3454C52.7855 39.6835 52.8065 38.024 52.7501 36.3621C52.722 35.564 52.6751 34.8411 52.4192 34.1158C53.5741 34.4561 55.0106 34.2965 56.0575 34.0594C56.3416 33.9961 56.6865 33.8787 57.0339 33.7214C56.71 34.2214 56.4425 34.7401 56.3744 35.3504C56.1843 37.0569 55.8815 39.1765 55.9707 41.1083C55.9683 41.4815 55.9706 41.8524 55.966 42.2256C55.8462 43.8828 55.7171 45.5423 55.5599 47.1948C55.2618 50.305 55.4026 52.9457 56.6231 55.8375C56.8978 56.49 57.1983 57.1379 57.5105 57.7811C56.6467 57.774 55.9636 58.2951 55.29 58.943C53.6539 60.5157 52.2362 58.6284 50.4968 58.6895C50.4053 58.6918 50.316 58.7176 50.2268 58.7341C50.3207 58.5768 50.4194 58.4242 50.5109 58.267C51.2433 57.0135 51.9709 55.7553 52.6164 54.455L52.6188 54.4526ZM56.865 75.1181C55.0177 75.2401 53.1586 75.2331 51.3254 75.0195C50.9005 74.9327 50.4475 74.8528 50.0274 74.8294C49.5157 74.7402 49.0063 74.6392 48.5016 74.5101C46.6379 74.0407 43.6873 72.8506 42.8517 70.8249C42.8118 70.4517 42.9056 70.048 43.2038 69.602C44.084 68.2805 45.0112 66.9848 45.8867 65.6586C46.9501 64.0554 47.9735 62.4287 48.9805 60.7903C49.7903 60.1166 50.6047 59.4922 51.776 60.0133C52.4192 60.2997 53.2008 60.7621 53.9238 60.7034C54.466 60.6612 54.9801 60.5767 55.3908 60.1776C55.6889 59.8913 55.9637 59.5861 56.2524 59.2904C56.9706 58.5557 57.6654 58.7552 58.2264 59.1988C59.0432 60.7879 59.9071 62.3583 60.7169 63.9263C61.4094 65.2689 62.0407 66.6538 62.7966 67.9612C63.5571 69.2757 64.226 70.3461 64.2448 71.7122C64.1556 74.32 58.67 74.9937 56.865 75.1134V75.1181Z" fill="black"/>
<path d="M52.548 65.0129C52.501 64.9308 52.4494 64.8416 52.386 64.7688C52.3696 64.7101 52.3602 64.6468 52.3368 64.5881C52.1701 64.1562 51.7217 64.0412 51.365 64.3322C50.9941 64.635 50.9847 65.2453 51.3157 65.581C51.656 65.9284 52.0997 65.919 52.4682 65.6256C52.6443 65.4847 52.6489 65.1937 52.548 65.0129Z" fill="black"/>
<path d="M54.9754 64.3464C54.8463 64.2384 54.743 64.1493 54.5646 64.1727C54.4214 64.1915 54.3344 64.2525 54.2805 64.3887C54.2147 64.5577 54.2711 64.6798 54.3462 64.8323C54.4214 64.9896 54.6373 65.0647 54.7969 65.0154C54.9072 64.9826 54.98 64.9356 55.0363 64.8323C55.1161 64.6821 55.1114 64.4661 54.973 64.3464H54.9754Z" fill="black"/>
<path d="M56.3322 62.6237C56.0294 62.4453 55.6538 62.8045 55.844 63.1119C55.8557 63.1284 55.8651 63.1448 55.8769 63.1613C55.9238 63.2364 56.0129 63.2997 56.1045 63.2927L56.1515 63.288C56.4895 63.2575 56.6562 62.8139 56.3322 62.6237Z" fill="black"/>
<path d="M58.2212 69.0788C57.9583 68.6516 57.4278 68.7737 57.2142 69.0882C57.2119 69.0835 57.2096 69.0812 57.2072 69.0788C57.0406 69.3464 57.01 69.6281 57.1157 69.9238C57.3293 70.513 58.0969 70.513 58.3105 69.9238C58.4185 69.6257 58.3855 69.3441 58.2212 69.0788Z" fill="black"/>
<path d="M56.3177 71.3789C55.6135 71.3789 55.6135 72.4704 56.3177 72.4704C57.0219 72.4704 57.0219 71.3789 56.3177 71.3789Z" fill="black"/>
<path d="M55.9282 69.6866C55.9258 69.6702 55.9211 69.6538 55.9188 69.6373C55.8178 69.1045 54.926 69.4097 55.2053 69.9378C55.2123 69.9519 55.2216 69.9683 55.2287 69.9824C55.4446 70.3861 56.0056 70.0927 55.9282 69.689V69.6866Z" fill="black"/>
<path d="M48.1612 69.4822C47.6541 69.3437 47.3161 69.8014 47.3842 70.2591C47.4006 70.3765 47.4453 70.4704 47.4993 70.576C47.6495 70.8718 48.0719 70.8976 48.2949 70.6793C48.3419 70.63 48.3912 70.5854 48.4429 70.5408C48.795 70.2122 48.6095 69.6066 48.1636 69.4845L48.1612 69.4822Z" fill="black"/>
<path d="M50.5577 71.5271C50.4145 71.1327 49.9709 71.0858 49.7362 71.3205C49.7362 71.3158 49.7362 71.3111 49.7339 71.3087C49.6306 71.4191 49.5625 71.5435 49.5296 71.6913C49.525 71.7125 49.5296 71.7289 49.5272 71.75C49.5272 71.75 49.5272 71.75 49.5272 71.7524C49.4639 71.8275 49.4827 71.9167 49.5484 71.9636C49.6658 72.3462 50.208 72.4988 50.4686 72.0881C50.5742 71.9237 50.6282 71.7172 50.5601 71.5271H50.5577Z" fill="black"/>
<path d="M50.2198 68.8112C50.2033 68.7736 50.1869 68.7384 50.1705 68.7032C49.9733 68.2807 49.2363 68.3746 49.1565 68.8347C49.1495 68.8746 49.1423 68.9145 49.1353 68.952C49.0696 69.3276 49.2949 69.7055 49.708 69.7055C50.1892 69.7055 50.4052 69.2079 50.2198 68.8112Z" fill="black"/>
<path d="M49.6258 25.98C49.5226 26.0105 49.4262 26.1137 49.438 26.2288C49.4685 26.5856 49.6774 26.9729 49.8745 27.2663C49.9708 27.4095 50.4332 27.7803 50.621 27.562C51.0928 27.0081 50.3511 25.7617 49.6281 25.98H49.6258Z" fill="black"/>
<path d="M53.6512 25.3371C53.4822 25.1986 53.2334 25.2432 53.1629 25.4662C53.0362 25.8723 53.0831 26.4216 53.4868 26.6586C53.5197 26.6774 53.5597 26.6774 53.5925 26.6586C54.0526 26.3864 54.0455 25.6611 53.6512 25.3371Z" fill="black"/>
<path d="M57.0198 24.4216C56.9752 24.2667 56.7592 24.1892 56.6418 24.323C56.1348 24.8957 55.5269 26.0131 55.9376 26.7525C56.0221 26.9074 56.2288 26.9168 56.3508 26.8064C56.6841 26.506 56.7851 26.1281 56.9024 25.7009C57.0245 25.269 57.1465 24.8629 57.0174 24.4239L57.0198 24.4216Z" fill="black"/>
<path d="M60.3433 25.5834C60.0734 25.6656 59.895 26.0435 59.726 26.2524C59.4795 26.5599 59.3504 26.8956 59.3856 27.2876C59.3903 27.3415 59.4419 27.4002 59.503 27.3767C59.9912 27.1819 60.3386 27.0176 60.6109 26.5341C60.7377 26.3087 60.8738 25.4191 60.3433 25.5811V25.5834Z" fill="black"/>
<path d="M54.3604 55.0959C54.344 55.0888 54.3299 55.0794 54.3134 55.0724C54.1045 54.9668 53.8558 55.0161 53.729 55.225C53.722 55.239 53.7126 55.2531 53.7055 55.2672C53.4872 55.6287 53.844 56.0794 54.2454 55.9691C54.628 55.8634 54.7383 55.286 54.3604 55.0959Z" fill="black"/>
<path d="M53.588 53.1078C53.588 53.136 53.588 53.1642 53.5856 53.1924C53.5786 53.4318 53.811 53.5656 54.0223 53.5256C54.0857 53.5139 54.1349 53.5092 54.1724 53.4529C54.1724 53.4505 54.1724 53.4458 54.1724 53.4435C54.8578 52.96 53.6115 52.3215 53.588 53.1078Z" fill="black"/>
<path d="M54.4397 48.0824C54.3341 48.0214 54.1979 48.0378 54.1134 48.1246C53.9796 48.2561 54.083 48.3523 54.0759 48.4955C54.0712 48.5683 54.1509 48.6293 54.2214 48.6082C54.3434 48.5683 54.4609 48.58 54.536 48.4533C54.6111 48.3265 54.5665 48.1575 54.4397 48.0848V48.0824Z" fill="black"/>
<path d="M41.5792 37.6649C41.2788 37.2682 41.0065 36.5429 40.5816 36.1979C40.5816 36.1908 40.5793 36.1838 40.5769 36.1767C40.4877 35.8246 39.9643 35.7448 39.7906 36.0734C39.1451 37.294 38.4762 38.4982 38.1241 39.8385C38.0865 39.9817 38.2719 40.1014 38.3799 39.9864C39.0677 39.2446 39.5794 38.3949 40.0371 37.5076C40.2859 38.8949 40.1944 40.4206 40.2413 41.782C40.3047 43.6622 40.3868 45.54 40.5135 47.4155C40.8023 51.6852 40.9079 55.9784 41.3398 60.2364C41.3492 60.3185 41.4619 60.3209 41.469 60.2364C41.7577 55.976 41.4102 51.6735 41.206 47.4155C41.0652 44.4603 41.314 41.2257 40.9384 38.2118C41.3727 38.801 41.8445 39.2939 42.4384 39.7563C42.5205 39.8197 42.6331 39.7634 42.612 39.6554C42.4594 38.8573 42.0604 38.3034 41.5792 37.6626V37.6649Z" fill="black"/>
<path d="M30.5071 50.4997C29.8077 50.5396 28.6317 51.2133 28.3101 50.1946C27.9322 48.9904 28.9838 46.6431 30.4227 46.9225C30.472 46.9318 30.5236 46.8826 30.493 46.8333C30.1832 46.3638 29.5354 46.5187 29.1364 46.7605C28.4815 47.1572 28.0589 47.8872 27.7726 48.575C27.113 50.1547 27.7045 51.833 29.6246 51.6898C30.1551 51.6499 30.8498 51.5231 31.1104 51.0067C31.3146 50.6054 30.8052 50.4833 30.5071 50.4997Z" fill="black"/>
<path d="M36.103 48.176C35.6805 46.4672 33.6031 45.8123 32.4459 47.2254C31.6525 48.1948 31.5821 50.0773 32.4647 50.8895C32.521 51.0467 32.6079 51.1946 32.7417 51.3308C33.1431 51.7321 33.7745 51.7274 34.2862 51.5913C35.7768 51.197 36.4481 49.582 36.1007 48.1737L36.103 48.176ZM33.7041 50.8237C33.3215 50.4787 32.8966 50.0844 32.7511 49.6079C32.568 49.0116 32.7981 48.23 33.1807 47.7558C34.068 46.6691 35.204 47.8263 35.3002 48.8497C35.3941 49.8567 34.4975 50.751 33.7041 50.8237Z" fill="black"/>
<path d="M38.3939 52.8331C38.2226 52.7463 37.9808 52.5867 37.7836 52.5867C37.6381 52.5867 37.4784 52.5984 37.3212 52.5914C37.7155 52.1219 38.1404 51.6337 38.1568 51.0093C38.1662 50.622 37.8048 50.291 37.4245 50.291C37.2297 50.291 36.5068 50.6032 36.7743 50.9037C36.9128 51.0609 37.2274 50.9577 37.4104 51.0093C37.4621 51.0234 37.3188 51.2957 37.2719 51.3802C37.0231 51.8238 36.6804 52.197 36.401 52.6219C36.3025 52.7721 36.3588 53.0256 36.5278 53.1031C36.8423 53.2486 37.1475 53.3331 37.4972 53.3378C37.8657 53.3425 38.0818 53.2017 38.3939 53.028C38.4667 52.9881 38.4691 52.8707 38.3939 52.8331Z" fill="black"/>
<path d="M95.8813 173.176H233.371" stroke="black" stroke-miterlimit="10"/>
</svg>
