<svg width="206" height="190" viewBox="0 0 206 190" fill="none" xmlns="http://www.w3.org/2000/svg">
<path d="M45.5317 96.4908C45.5317 96.4908 20.4509 91.6367 12.7401 124.698C5.0293 157.76 5.0293 188.42 5.0293 188.42L93.4749 188.802C93.4749 188.802 94.2166 110.506 79.8348 102.542C65.453 94.5778 45.5317 96.4908 45.5317 96.4908Z" fill="#E6E7E8"/>
<path d="M35.4902 122.398C35.4902 122.398 40.2974 146.3 41.3654 154.647C42.4311 162.994 31.1712 165.942 31.1712 165.942C31.1712 165.942 27.2653 159.046 27.3404 158.337C27.4155 157.628 30.2323 122.396 30.2323 122.396H35.4925L35.4902 122.398Z" fill="black"/>
<path d="M0.722168 164.802C0.722168 164.802 7.03871 146.54 37.8726 150.136C37.8726 150.136 30.5514 168.313 0.722168 164.802Z" fill="black"/>
<path d="M73.0536 133.43C73.0536 133.43 74.4502 137.632 77.2623 136.449C80.0743 135.263 82.8723 133.015 82.8723 133.015C82.8723 133.015 86.2805 130.736 87.9682 134.364C87.9682 134.364 89.2498 136.977 84.3346 140.77C84.3346 140.77 86.6561 144.042 82.262 146.432C82.262 146.432 82.1423 150.793 77.1472 151.469C77.1472 151.469 78.626 153.38 76.2388 154.082C73.8517 154.784 69.9622 154.481 67.3286 154.147C67.3286 154.147 65.3521 153.154 64.4226 154.584C63.4931 156.013 59.7985 184.876 38.68 187.535C30.88 188.516 17.1225 189.282 11.313 179.608C11.313 179.608 5.30396 170.297 4.95657 149.664C4.95657 149.664 3.24305 124.105 9.27087 116.42C9.27087 116.42 15.4513 104.596 24.0212 105.028C24.0212 105.028 26.2957 108.549 26.8074 112.293C27.3191 116.037 28.7369 124.187 28.7369 124.187C28.7369 124.187 30.3729 155.603 31.3025 156.57C32.232 157.537 33.4291 160.152 36.6144 157.826C39.7996 155.499 56.179 143.467 56.179 143.467C56.179 143.467 58.8666 140.122 59.4605 138.489C60.052 136.855 65.3287 130.29 73.0536 133.437V133.43Z" fill="white"/>
<path d="M59.3853 138.592C59.3853 138.592 62.7513 134.008 63.6221 133.212C64.4929 132.416 67.1735 127.318 77.2246 129.961C87.2757 132.604 70.0889 136.465 70.0889 136.465L59.3876 138.592H59.3853Z" fill="white"/>
<path d="M76.6872 129.808C76.6872 129.808 68.981 125.59 61.0519 136.162L55.97 143.582L35.3374 158.116C35.3374 158.116 31.5771 159.539 31.171 155.168C30.7649 150.797 27.7158 109.633 25.6831 107.192C23.6503 104.753 21.8218 105.035 21.8218 105.035" stroke="black" stroke-miterlimit="10"/>
<path d="M95.1674 53.1083C95.1674 53.1083 96.5148 72.5931 93.4258 80.7123C93.4258 80.7123 89.9213 96.8382 76.6849 100.486L67.7254 101.636C67.7254 101.636 69.9389 111.943 65.2795 114.962C61.3971 117.478 54.9022 120.447 47.8674 114.724C45.3065 112.642 43.4169 109.849 42.2902 106.748C41.2433 103.866 39.957 99.9272 39.9899 98.0799L43.3441 97.1574L48.7781 83.5526C48.9142 83.2028 48.9706 82.8179 48.8978 82.4493C48.8063 81.9822 48.5176 81.5151 47.6772 81.771C47.2406 81.9048 43.0601 80.8367 43.3887 75.0155C43.7197 69.1942 46.0224 62.096 53.6722 69.0017C53.6722 69.0017 54.705 71.0251 54.3153 74.3559C54.3153 74.3559 53.8928 76.6727 55.2942 76.0389C56.6955 75.4051 58.2377 74.6939 59.2658 65.9151C59.2658 65.9151 92.0831 71.2012 95.1628 53.106L95.1674 53.1083Z" fill="white"/>
<path d="M94.8222 48.5078C94.8222 48.5078 101.19 70.1756 59.2702 65.9176C59.2702 65.9176 58.4768 75.8349 55.5873 76.0414C52.6955 76.2504 55.4394 73.5838 54.3761 70.293C53.3128 67.0021 45.1067 61.5141 43.527 72.6872C42.6961 78.5601 44.8931 81.2196 47.2263 81.7712C47.9328 81.9378 49.2731 80.905 48.86 83.7311L43.3486 97.4886" stroke="black" stroke-miterlimit="10"/>
<path d="M95.1674 53.1084C95.1674 53.1084 101.334 99.8193 70.2205 101.448C66.5306 101.641 62.9345 100.047 60.6741 98.0377C58.017 95.6787 56.2823 90.5593 55.2988 83.1724" stroke="black" stroke-miterlimit="10"/>
<path d="M66.2556 101.005L64.521 106.117" stroke="black" stroke-miterlimit="10"/>
<path d="M86.3791 77.4638C87.1297 77.4638 87.7382 76.8553 87.7382 76.1047C87.7382 75.3541 87.1297 74.7456 86.3791 74.7456C85.6285 74.7456 85.02 75.3541 85.02 76.1047C85.02 76.8553 85.6285 77.4638 86.3791 77.4638Z" fill="#231F20"/>
<path d="M70.8727 76.1049C71.6233 76.1049 72.2318 75.4964 72.2318 74.7458C72.2318 73.9952 71.6233 73.3867 70.8727 73.3867C70.1221 73.3867 69.5137 73.9952 69.5137 74.7458C69.5137 75.4964 70.1221 76.1049 70.8727 76.1049Z" fill="#231F20"/>
<path d="M90.4304 73.1755C90.4304 73.1755 90.4515 69.1569 85.5527 70.2038" stroke="#231F20" stroke-miterlimit="10"/>
<path d="M73.7272 69.0909C73.7272 69.0909 71.4973 65.746 68.021 69.3538" stroke="#231F20" stroke-miterlimit="10"/>
<path d="M81.6093 75.626L81.1257 87.9163L76.687 86.5855" stroke="black" stroke-miterlimit="10"/>
<path d="M94.5899 70.4783C92.2567 71.7036 89.0855 62.2276 89.0855 62.2276C82.729 68.3024 59.2726 65.9152 59.2726 65.9152C59.2726 65.9152 57.9629 72.4641 57.2305 74.6541C56.4982 76.8442 54.2964 75.6259 54.2964 75.6259C54.2964 75.6259 54.4044 72.5604 54.3762 70.2905C54.3504 68.0231 50.421 66.7086 50.421 66.7086C43.621 63.2909 43.3909 73.9288 43.5858 77.6235C43.7806 81.3181 48.5057 81.7688 48.5057 81.7688C48.9258 82.818 48.9164 83.9916 48.4798 85.0338L44.0012 95.8548C44.0012 95.8548 32.2906 95.6788 28.7627 90.5053C25.6455 85.9352 28.0843 80.9683 31.8799 79.2713C35.6754 77.5742 38.6541 66.1147 41.3652 53.1061C44.0763 40.0951 57.9535 36.8817 67.7276 35.431C73.2085 34.6189 79.4781 35.9827 84.0459 37.391C89.2075 38.9825 93.7941 42.1114 96.9653 46.4867C98.9629 49.2448 100.505 52.5169 99.9135 55.6247C98.4981 63.0844 103.139 90.4678 98.6929 99.2631C96.6484 103.31 78.2762 99.7771 78.2762 99.7771C78.2762 99.7771 91.3107 95.6248 94.5687 75.4827L94.5875 70.4783H94.5899Z" fill="black"/>
<path d="M84.6258 97.0637C76.8868 97.5496 70.6852 103.993 70.4716 111.744C70.3144 117.447 73.3142 122.461 77.8491 125.172L69.7839 142.401C68.4765 145.192 69.9224 148.497 72.8588 149.434C75.5911 150.305 78.504 148.756 79.3115 146.002L84.7924 127.287C85.0623 127.301 85.3323 127.311 85.6069 127.311C93.9679 127.311 100.747 120.532 100.747 112.171C100.747 103.81 93.4328 96.5074 84.6281 97.0613L84.6258 97.0637Z" fill="#01A1E4"/>
<path d="M86.3698 123.226C91.8885 123.226 96.3622 118.753 96.3622 113.234C96.3622 107.715 91.8885 103.242 86.3698 103.242C80.8512 103.242 76.3774 107.715 76.3774 113.234C76.3774 118.753 80.8512 123.226 86.3698 123.226Z" fill="#FFC600" stroke="black" stroke-miterlimit="10"/>
<path d="M73.3492 133.62C73.3492 133.62 73.9243 137.47 76.6847 136.528C79.4475 135.587 82.7665 133.554 83.1069 132.944C83.4449 132.334 87.102 131.341 88.1207 134.888C88.1207 134.888 88.3249 138.366 84.5998 140.737C84.5998 140.737 86.3673 144.089 82.2642 146.546C82.2642 146.546 82.7243 149.964 77.2246 151.687C77.2246 151.687 78.3865 153.41 75.7998 154.088C73.2154 154.764 64.9554 154.088 64.9554 154.088C64.9554 154.088 59.7984 145.415 63.9319 139.451C68.0655 133.489 73.3516 133.622 73.3516 133.622L73.3492 133.62Z" fill="white"/>
<path d="M76.8539 151.525C78.1425 151.974 77.835 152.682 77.382 153.178C77.051 153.539 76.6285 153.8 76.1661 153.966C74.861 154.431 71.272 155.354 65.9015 153.976C65.1527 153.783 64.3992 154.255 64.2631 155.016C62.9509 162.339 55.2471 194.76 22.4979 187.657C3.25014 183.481 4.99887 150.054 4.99887 134.125C4.99887 118.196 13.543 107.206 22.2185 105.068" stroke="#231F20" stroke-miterlimit="10"/>
<path d="M82.2621 146.542C82.2621 146.542 82.3513 150.636 76.5934 151.57C74.9996 151.828 73.3682 151.704 71.8096 151.286C70.4012 150.908 68.5915 150.338 67.6948 149.708" stroke="#231F20" stroke-miterlimit="10"/>
<path d="M84.5459 140.627C84.5459 140.627 86.5833 144.528 82.262 146.54C77.9406 148.551 72.9527 149.711 66.5728 145.235" stroke="#231F20" stroke-miterlimit="10"/>
<path d="M73.4198 133.651C74.1099 138.291 79.1425 136.714 82.3254 133.353C84.9144 130.62 89.4987 133.332 87.8251 137.108C86.1515 140.885 76.3093 146.784 70.0562 141.099" stroke="#231F20" stroke-miterlimit="10"/>
<path d="M67.5024 90.5078C67.5024 90.5078 71.1736 97.383 76.9596 92.5899" stroke="black" stroke-miterlimit="10"/>
<path d="M88.3019 109.002L83.0627 113.164C82.943 113.26 83.0322 113.452 83.1824 113.422L91.135 111.84C91.2923 111.809 91.3791 112.014 91.2477 112.105L82.6543 118.013" stroke="black" stroke-miterlimit="10"/>
<path d="M33.9994 97.4883C33.9994 97.4883 6.77093 101.455 3.5528 118.013C0.334679 134.571 0.738412 164.219 0.738412 164.219C0.738412 164.219 8.91635 147.441 37.8724 150.135L33.9994 97.4883Z" fill="#E6E7E8"/>
<path d="M0.736328 164.222C0.736328 164.222 7.03643 148.324 37.8703 150.138L36.3962 128.149C36.3962 125.017 33.7626 110.889 26.3405 108.295" stroke="black" stroke-miterlimit="10"/>
<path d="M58.517 39.0579C58.517 39.0579 55.1909 18.7445 49.8837 24.1057C44.5765 29.4692 38.6238 37.119 46.4261 39.0579C54.2285 40.9967 58.517 42.2196 58.517 42.2196V39.0579Z" fill="black"/>
<path d="M202.541 118.739C200.14 94.285 170.733 90.8721 170.733 90.8721C170.25 96.252 170.226 101.74 167.219 105.014C161.98 110.721 157.483 110.857 153.331 109.911C142.728 107.493 145.789 95.8483 145.789 95.8483C122.91 111.19 121.818 134.879 121.598 151.216C121.598 151.216 125.114 154.486 125.133 155.831V188.798H202.739C202.739 188.798 203.656 130.088 202.541 118.737V118.739Z" fill="#E6E7E8"/>
<path d="M167.804 66.127C167.804 66.127 163.626 64.5519 161.844 68.7301" stroke="black" stroke-miterlimit="10"/>
<path d="M169.306 42.565C166.914 34.0702 153.077 26.1106 141.296 26.6997C141.296 26.6997 127.997 27.8687 120.776 38.6404C120.776 38.6404 108.57 43.3161 109.521 56.468C109.521 56.468 109.207 65.5097 112.887 68.7302C116.57 71.9506 118.851 71.1432 118.851 71.1432C118.851 71.1432 117.323 59.9631 117.938 52.7029L118.152 49.412C118.657 52.825 122.56 65.498 152.596 59.9302C152.965 59.8739 153.31 59.8105 153.624 59.7377C153.629 59.7377 153.634 59.7377 153.641 59.7354C153.777 59.7025 153.913 59.6697 154.037 59.6344C154.037 59.6344 154.72 67.8992 157.049 69.5142C157.049 69.5142 158.96 70.155 159.011 69.3428C159.063 68.533 157.899 64.4135 159.631 62.7188C161.361 61.024 163.471 59.7988 166.084 59.9161C166.084 59.9161 171.698 51.0645 169.306 42.5674V42.565ZM118.269 47.5765C118.321 47.6422 118.344 47.7642 118.356 47.9262C118.312 48.0224 118.269 48.1187 118.227 48.2173L118.269 47.5765Z" fill="black"/>
<path d="M118.14 46.8208C118.14 46.8208 116.793 66.3056 119.882 74.4248C119.882 74.4248 123.128 90.4662 136.364 94.1162L141.709 95.1279L146.007 94.7969C146.007 94.7969 143.369 105.658 148.028 108.676C151.91 111.193 158.405 114.162 165.44 108.439C168.001 106.357 169.891 103.564 171.017 100.463C172.064 97.5808 173.351 93.642 173.318 91.7947L169.963 90.8723L164.529 77.2674C164.393 76.9177 164.337 76.5327 164.41 76.1642C164.501 75.6971 164.79 75.23 165.63 75.4858C166.067 75.6196 170.247 74.5516 169.919 68.7303C169.588 62.9091 167.285 55.8109 159.635 62.7166C159.635 62.7166 158.603 64.74 158.992 68.0708C158.992 68.0708 159.415 70.3875 158.013 69.7537C156.61 69.1223 155.07 68.4087 154.042 59.6299C154.042 59.6299 121.224 64.916 118.145 46.8208H118.14Z" fill="white"/>
<path d="M118.485 42.2202C118.485 42.2202 112.117 63.888 154.037 59.63C154.037 59.63 154.831 69.5473 157.72 69.7538C160.612 69.9627 157.868 67.2962 158.931 64.0053C159.995 60.7144 168.201 55.2265 169.781 66.3996C170.612 72.2725 168.414 74.9319 166.081 75.4835C165.375 75.6502 164.034 74.6174 164.448 77.4435L169.959 91.2009" stroke="black" stroke-miterlimit="10"/>
<path d="M118.14 46.8208C118.14 46.8208 111.321 93.4824 142.434 95.1114C146.124 95.3039 150.612 93.7406 152.763 90.8723C154.894 88.0297 157.025 84.274 158.009 76.8848" stroke="black" stroke-miterlimit="10"/>
<path d="M118.852 71.141C108.188 70.9509 108.829 56.4001 110.415 49.6869C112.002 42.9736 120.776 38.6406 120.776 38.6406C120.776 38.6406 137.306 13.2383 166.086 36.5327C166.086 36.5327 174.707 44.9313 166.086 59.914" stroke="black" stroke-miterlimit="10"/>
<path d="M146.916 94.3154L149.258 101.223" stroke="black" stroke-miterlimit="10"/>
<path d="M126.928 71.1786C127.679 71.1786 128.287 70.5701 128.287 69.8195C128.287 69.0689 127.679 68.4604 126.928 68.4604C126.178 68.4604 125.569 69.0689 125.569 69.8195C125.569 70.5701 126.178 71.1786 126.928 71.1786Z" fill="#231F20"/>
<path d="M142.435 69.8192C143.185 69.8192 143.794 69.2107 143.794 68.4601C143.794 67.7095 143.185 67.1011 142.435 67.1011C141.684 67.1011 141.076 67.7095 141.076 68.4601C141.076 69.2107 141.684 69.8192 142.435 69.8192Z" fill="#231F20"/>
<path d="M122.877 66.8898C122.877 66.8898 122.856 62.8713 127.755 63.9182" stroke="#231F20" stroke-miterlimit="10"/>
<path d="M139.583 62.8057C139.583 62.8057 141.812 59.4608 145.289 63.0686" stroke="#231F20" stroke-miterlimit="10"/>
<path d="M131.701 69.3403L132.184 81.6307L136.623 80.2998" stroke="black" stroke-miterlimit="10"/>
<path d="M139.853 85.7266C139.853 85.7266 147.415 87.6091 147.737 80.1025" stroke="black" stroke-miterlimit="10"/>
<path d="M202.739 147.639H174.306V188.458H202.739V147.639Z" fill="white"/>
<path d="M174.306 147.639V188.46" stroke="black" stroke-miterlimit="10"/>
<path d="M202.739 147.981V188.8" stroke="black" stroke-miterlimit="10"/>
<path d="M118.523 0.783203H88.5786C85.4591 0.783203 82.9287 3.31121 82.9287 6.4331V24.3452C82.9287 27.4648 85.4567 29.9951 88.5786 29.9951H101.517L100.444 35.7812L111.915 29.9951H118.521C121.64 29.9951 124.17 27.4671 124.17 24.3452V6.4331C124.17 3.31356 121.64 0.783203 118.521 0.783203H118.523Z" fill="white" stroke="#231F20" stroke-miterlimit="10"/>
<path d="M91.6795 11.346C91.7335 11.954 91.5223 12.5502 91.4471 13.1534C91.3697 13.759 91.4753 14.4632 91.9823 14.8059C92.609 15.2284 93.4987 14.8411 93.9587 14.2426C94.4188 13.644 94.6113 12.8835 94.9751 12.2216C95.3389 11.5596 96.0009 10.947 96.752 11.0432C98.0336 11.2099 98.1838 13.0009 98.9749 14.0243C99.8551 15.1627 101.841 15.158 102.716 14.0172C103.407 13.1182 103.688 11.5808 104.82 11.5573C106.51 11.5221 106.369 14.8998 108.052 15.0547C109.024 15.1439 109.61 14.0407 109.993 13.1441C110.376 12.2474 111.185 11.2099 112.099 11.5549C112.542 11.7216 112.805 12.1676 113.019 12.5901C113.232 13.0126 113.455 13.4703 113.871 13.6957C114.286 13.9233 114.941 13.7496 115 13.2802" fill="white"/>
<path d="M91.5316 11.3462C91.5856 12.1842 91.1912 12.9823 91.2969 13.8226C91.372 14.4164 91.71 14.9845 92.3367 15.1065C92.9634 15.2286 93.616 14.8742 94.0103 14.4094C94.5314 13.7944 94.7169 12.9893 95.0995 12.2945C95.4633 11.6396 96.1957 10.9401 97.0031 11.257C97.5383 11.4659 97.8153 12.0504 98.0383 12.5409C98.2871 13.0808 98.496 13.6536 98.8669 14.1254C99.2377 14.5972 99.7659 14.8741 100.334 14.9751C100.902 15.076 101.512 15.0056 102.038 14.7474C102.564 14.4892 102.923 14.0291 103.205 13.5104C103.486 12.9916 103.716 12.3532 104.176 11.9565C104.559 11.6279 105.108 11.6185 105.489 11.9494C105.831 12.2452 106.028 12.6935 106.214 13.0949C106.416 13.5338 106.594 13.9892 106.864 14.3906C107.085 14.7239 107.376 15.022 107.765 15.1441C108.303 15.3108 108.836 15.0971 109.218 14.7122C109.688 14.2357 109.92 13.616 110.207 13.0268C110.493 12.4377 111.045 11.5739 111.8 11.6325C112.627 11.6959 112.854 12.7217 113.244 13.2874C113.577 13.7709 114.136 14.116 114.72 13.8437C114.941 13.7404 115.098 13.5573 115.145 13.3156C115.18 13.1301 114.899 13.0527 114.861 13.2381C114.796 13.5808 114.411 13.7005 114.101 13.6254C113.692 13.5245 113.451 13.0973 113.27 12.7522C112.983 12.21 112.704 11.5739 112.063 11.3837C111.491 11.2124 110.944 11.541 110.568 11.9518C110.113 12.4494 109.901 13.0597 109.599 13.6465C109.317 14.1888 108.887 14.8789 108.204 14.907C107.74 14.9281 107.383 14.6277 107.136 14.2615C106.636 13.5245 106.453 12.5949 105.869 11.9095C105.251 11.1866 104.275 11.3016 103.712 12.0316C103.362 12.4846 103.151 13.0268 102.867 13.5198C102.536 14.0925 102.078 14.5009 101.423 14.6558C100.829 14.7967 100.174 14.7192 99.6462 14.4094C99.118 14.0996 98.8293 13.5644 98.5805 13.0221C98.1791 12.1466 97.7542 10.8697 96.583 10.8814C95.8459 10.8885 95.2474 11.4682 94.8953 12.0668C94.4563 12.8132 94.292 13.7709 93.6371 14.3765C92.9822 14.9821 91.9471 15.0385 91.6513 14.0737C91.3767 13.1724 91.8884 12.2546 91.8297 11.3415C91.818 11.1537 91.5246 11.1537 91.5363 11.3415L91.5316 11.3462Z" fill="#231F20"/>
<path d="M91.6136 18.5946C91.6676 19.2025 91.4563 19.7987 91.3812 20.402C91.3038 21.0076 91.4094 21.7118 91.9164 22.0545C92.5431 22.477 93.4327 22.0897 93.8928 21.4911C94.3529 20.8925 94.5454 20.132 94.9092 19.4701C95.273 18.8082 95.9349 18.1955 96.6861 18.2918C97.9677 18.4584 98.1179 20.2494 98.909 21.2728C99.7892 22.4113 101.775 22.4066 102.651 21.2658C103.341 20.3668 103.622 18.8293 104.754 18.8058C106.444 18.7706 106.303 22.1484 107.986 22.3033C108.958 22.3925 109.544 21.2893 109.927 20.3926C110.31 19.4959 111.12 18.4584 112.033 18.8035C112.476 18.9701 112.739 19.4161 112.953 19.8386C113.166 20.2611 113.389 20.7189 113.805 20.9442C114.22 21.1695 114.875 20.9982 114.934 20.5287" fill="white"/>
<path d="M91.4657 18.5947C91.5197 19.4327 91.1253 20.2308 91.231 21.0711C91.3061 21.665 91.6441 22.233 92.2708 22.3551C92.8975 22.4771 93.5501 22.1227 93.9444 21.6579C94.4655 21.0429 94.651 20.2378 95.0336 19.543C95.3974 18.8881 96.1297 18.1886 96.9372 18.5055C97.4724 18.7144 97.7494 19.2989 97.9724 19.7895C98.2212 20.3294 98.4301 20.9021 98.8009 21.3739C99.1718 21.8457 99.7 22.1227 100.268 22.2236C100.836 22.3245 101.446 22.2541 101.972 21.9959C102.498 21.7377 102.857 21.2777 103.139 20.7589C103.42 20.2402 103.65 19.6017 104.11 19.205C104.493 18.8764 105.042 18.867 105.423 19.198C105.765 19.4937 105.963 19.942 106.148 20.3434C106.35 20.7824 106.528 21.2378 106.798 21.6391C107.019 21.9725 107.31 22.2706 107.699 22.3926C108.237 22.5593 108.77 22.3457 109.152 21.9607C109.622 21.4842 109.854 20.8646 110.141 20.2754C110.427 19.6862 110.979 18.8224 111.734 18.8811C112.561 18.9445 112.788 19.9702 113.178 20.5359C113.511 21.0195 114.07 21.3645 114.654 21.0922C114.875 20.989 115.032 20.8059 115.079 20.5641C115.115 20.3787 114.833 20.3012 114.795 20.4866C114.73 20.8293 114.345 20.949 114.035 20.8739C113.626 20.773 113.385 20.3458 113.204 20.0007C112.917 19.4585 112.638 18.8224 111.997 18.6323C111.425 18.4609 110.878 18.7895 110.502 19.2003C110.047 19.6979 109.836 20.3082 109.533 20.8951C109.251 21.4373 108.822 22.1274 108.138 22.1556C107.674 22.1767 107.317 21.8762 107.07 21.5101C106.57 20.773 106.387 19.8435 105.803 19.1581C105.186 18.4351 104.209 18.5501 103.646 19.2801C103.296 19.7332 103.085 20.2754 102.801 20.7683C102.47 21.341 102.012 21.7495 101.357 21.9044C100.763 22.0452 100.108 21.9678 99.5802 21.6579C99.0521 21.3481 98.7634 20.8129 98.5146 20.2707C98.1132 19.3951 97.6883 18.1182 96.517 18.13C95.78 18.137 95.1814 18.7168 94.8293 19.3153C94.3904 20.0618 94.2261 21.0195 93.5712 21.6251C92.9163 22.2307 91.8812 22.287 91.5854 21.3223C91.3108 20.4209 91.8225 19.5031 91.7638 18.59C91.7521 18.4022 91.4586 18.4022 91.4704 18.59L91.4657 18.5947Z" fill="#231F20"/>
<path d="M197.875 108.54C195.535 104.214 190.744 101.789 185.85 102.261C182.611 102.573 178.893 103.42 177.275 105.596C174.121 109.838 172.133 112.22 172.093 122.565C172.053 132.909 172.114 147.362 172.114 147.362H203.417C203.417 147.362 204.863 121.45 197.875 108.537V108.54Z" fill="#E6E7E8"/>
<path d="M203.419 147.639H172.121C172.121 147.639 171.984 135.858 172.121 120.239C172.257 104.622 182.01 103.019 182.01 103.019" stroke="#3F3F3F" stroke-miterlimit="10"/>
<path d="M55.5005 188.801H98.6999H158.701L173.203 187.427L98.6999 168.562" fill="black"/>
<path d="M53.8718 163.295L39.6777 188.411L55.5008 188.801C55.5008 188.801 82.1072 173.271 98.618 188.113L106.362 185.923L113.699 188.801C113.699 188.801 123.053 173.445 157.349 188.411L173.203 188.514L158.805 162.797C158.805 162.797 143.111 153.77 129.912 154.41C129.912 154.41 114.77 154.899 106.439 164.494C106.439 164.494 89.311 146.019 60.2446 159.68L53.8694 163.295H53.8718Z" fill="white"/>
<path d="M106.266 184.843C106.266 184.843 95.5128 161.356 48.0859 180.928L60.2449 159.68C60.2449 159.68 88.3066 145.003 106.362 164.635L106.266 184.843Z" stroke="black" stroke-miterlimit="10"/>
<path d="M48.0857 180.928L39.6777 188.411L55.2379 188.493C55.2379 188.493 83.8207 173.581 99.0452 188.514L106.362 185.92" stroke="black" stroke-miterlimit="10"/>
<path d="M60.247 159.68L53.8718 163.295L39.5205 188.517" stroke="black" stroke-miterlimit="10"/>
<path d="M106.524 184.665C106.524 184.665 117.211 161.298 164.638 180.872L152.479 159.624C152.479 159.624 124.417 144.946 106.362 164.579L106.526 184.665H106.524Z" stroke="black" stroke-miterlimit="10"/>
<path d="M164.638 180.872L173.046 188.355L157.486 188.437C157.486 188.437 128.903 173.525 113.678 188.458L106.362 185.864" stroke="black" stroke-miterlimit="10"/>
<path d="M152.479 159.624L158.852 163.239L173.203 188.46" stroke="black" stroke-miterlimit="10"/>
<path d="M122.551 167.616H75.2271L80.1587 162.584L80.6328 162.098L86.1654 156.448L86.6395 155.962L87.0574 155.535L91.9843 150.507L92.4585 150.021L96.653 145.74C97.8807 144.488 99.8923 144.488 101.12 145.74L105.315 150.021L105.789 150.507L110.716 155.535L111.133 155.962L111.608 156.448L117.14 162.098L117.614 162.584L122.546 167.616H122.551Z" fill="#01A1E4"/>
<path d="M105.791 150.509H91.9868L92.461 150.023H105.317L105.791 150.509Z" fill="black"/>
<path d="M111.61 156.448H86.1655L86.642 155.964H111.136L111.61 156.448Z" fill="black"/>
<path d="M117.619 162.584H80.1587L80.6328 162.098H117.142L117.619 162.584Z" fill="black"/>
<path d="M135.811 167.799H99.4277L103.219 163.929L103.585 163.555L107.838 159.213L108.204 158.84L108.526 158.511L112.314 154.645L112.68 154.272L115.906 150.981C116.849 150.019 118.396 150.019 119.34 150.981L122.565 154.272L122.931 154.645L126.72 158.511L127.041 158.84L127.407 159.213L131.661 163.555L132.027 163.929L135.818 167.799H135.811Z" fill="#FFC600"/>
<path d="M122.926 154.647H112.312L112.676 154.274H122.56L122.926 154.647Z" fill="black"/>
<path d="M127.4 159.213H107.838L108.202 158.84H127.034L127.4 159.213Z" fill="black"/>
<path d="M132.018 163.929H103.219L103.585 163.558H131.654L132.018 163.929Z" fill="black"/>
<path d="M0.736328 188.517H205.206" stroke="black" stroke-miterlimit="10"/>
</svg>
