<svg width="292" height="250" viewBox="0 0 292 250" fill="none" xmlns="http://www.w3.org/2000/svg">
<path d="M185.216 249H290.206" stroke="black" stroke-miterlimit="10"/>
<path d="M199.055 19.6713L185.624 37.7718C185.624 37.7718 181.122 59.8498 184.508 79.4564C184.508 79.4564 189.327 103.538 208.376 99.5807V128.284C208.376 128.284 211.255 144.364 236.201 132.843C236.201 132.843 240.279 121.111 241.385 103L240.089 74.594C240.089 74.594 256.139 74.7877 255.668 64.0577C255.197 53.3309 248.595 46.8321 247.302 47.1694C246.01 47.5067 224.516 17.2401 199.052 19.668L199.055 19.6713Z" fill="white"/>
<path d="M73.8814 173.739C73.8814 173.739 57.778 175.69 54.395 168.703C51.199 162.098 47.3417 163.3 40.1983 165.491C32.5808 167.818 28.954 155.846 30.9177 153.685C32.8813 151.524 24.7362 143.646 20.8723 149.671C17.4025 155.068 0 134.235 0 134.235C0 134.235 4.21773 130.739 25.6445 134.843C32.6008 136.172 39.3869 139.729 45.5751 144.197H45.5818C61.4515 155.635 73.3504 172.975 73.8614 173.719C73.8781 173.733 73.878 173.743 73.878 173.743L73.8814 173.739Z" fill="#F480FF"/>
<path d="M73.8817 173.739C73.8817 173.739 65.0751 168.95 60.3697 167.361C55.6709 165.764 56.6695 161.326 56.4959 159.266C56.3222 157.215 53.5369 153.385 48.1435 152.626C33.8735 150.626 45.5788 144.197 45.5788 144.197H45.5855C61.4552 155.635 73.354 172.974 73.8649 173.719C73.8816 173.733 73.8817 173.743 73.8817 173.743V173.739Z" fill="black"/>
<path d="M73.8348 173.355V173.756C73.8348 173.756 73.631 173.646 73.2803 173.449C72.7527 173.142 71.8744 172.614 70.8525 171.916C67.5797 169.682 62.8476 165.694 63.4888 161.697C64.4005 155.976 61.3581 155.014 55.7409 153.208C49.7564 151.281 52.8087 141.886 55.0596 141.375C57.3105 140.855 55.5806 132.075 50.3641 134.232C45.6854 136.166 43.8086 114.816 43.8086 114.816C43.8086 114.816 48.1234 114.458 60.1492 126.785C62.4067 129.103 64.2936 131.874 65.8699 134.907L65.9199 135.01L66.7548 136.707L66.815 136.834C73.5409 151.341 73.838 170.376 73.838 173.359L73.8348 173.355Z" fill="#F480FF"/>
<path d="M130.838 141.709C130.838 141.709 117.37 158.377 114.564 154.163C111.432 149.451 105.107 155.779 106.68 157.459C108.259 159.139 105.551 168.643 99.5062 166.896C93.8456 165.26 90.7798 164.368 88.3452 169.622C85.7637 175.182 73.02 173.849 73.02 173.849C73.02 173.849 74.6097 171.412 77.3882 167.878C80.3204 164.118 84.605 159.122 89.6978 154.52C95.7825 149.023 103.043 144.094 110.604 142.518C127.465 139.001 130.835 141.713 130.835 141.713L130.838 141.709Z" fill="#F480FF"/>
<path d="M69.8438 144.772C69.8438 144.772 66.5276 153.635 69.1759 162.899C70.6653 168.109 71.2866 172.203 71.2866 172.203L73.8413 173.753C73.8413 173.753 74.1485 154.236 74.1084 153.775C74.0684 153.314 71.5703 151.347 71.5703 151.347L69.8472 144.775L69.8438 144.772Z" fill="black"/>
<path d="M93.9158 158.965C93.3748 161.236 86.4018 161.857 87.0964 165.965C87.5973 168.91 74.2524 173.539 73.8884 173.729C73.992 173.552 75.4513 171.071 77.3916 167.878C80.3237 164.118 84.6083 159.122 89.7012 154.52C89.7012 154.52 94.5737 156.213 93.9158 158.968V158.965Z" fill="black"/>
<path d="M73.8347 173.355L73.2802 173.449C72.7526 173.142 71.8743 172.614 70.8524 171.916C69.8305 169.274 67.9035 164.492 66.8114 162.779C65.2786 160.358 66.7948 157.86 66.8114 153.418C66.8281 148.97 65.6861 152.303 65.8665 146.291C66.0535 140.283 66.8114 136.83 66.8114 136.83C73.5374 151.337 73.8347 170.373 73.8347 173.355Z" fill="black"/>
<path d="M73.4638 173.786C73.4638 173.786 65.9997 133.334 80.5737 112.231C92.9735 94.2808 98.4272 93.8199 98.4272 93.8199C98.4272 93.8199 100.631 120.874 94.3729 119.455C87.3965 117.872 87.1092 129.199 90.028 129.363C92.9468 129.527 98.7544 140.607 91.6879 144.284C85.0621 147.731 81.4722 149.581 83.8232 156.53C86.3112 163.878 73.4638 173.786 73.4638 173.786Z" fill="#F480FF"/>
<path d="M106.359 168.71V186.55H96.8542L88.5922 226.745H48.9248L41.4408 186.55H30.6873V168.71H106.359Z" fill="#FFC600"/>
<path d="M64.1969 71.0006C72.7309 71.0006 79.6491 64.0824 79.6491 55.5483C79.6491 47.0143 72.7309 40.0961 64.1969 40.0961C55.6628 40.0961 48.7446 47.0143 48.7446 55.5483C48.7446 64.0824 55.6628 71.0006 64.1969 71.0006Z" fill="#FFC600"/>
<path d="M63.1379 74.5907V86.7734" stroke="black" stroke-miterlimit="10"/>
<path d="M45.7254 65.7675L35.8301 72.8774" stroke="black" stroke-miterlimit="10"/>
<path d="M80.1699 66.8328L89.0567 75.1684" stroke="black" stroke-miterlimit="10"/>
<path d="M96.8545 186.55L73.7546 186.971L84.1341 226.745H88.5924L96.8545 186.55Z" fill="black"/>
<path d="M96.8541 186.55H41.0566" stroke="black" stroke-miterlimit="10"/>
<path d="M95.5352 249H159.942H249.403L271.023 246.953L159.942 218.824" fill="#231F20"/>
<path d="M95.5352 249H159.942H249.403L271.023 246.953L159.942 218.824" stroke="#231F20" stroke-miterlimit="10"/>
<path d="M208.383 107.288C208.383 107.288 203.524 129.887 223.06 129.159C242.142 128.448 241.471 103.541 241.471 103.541C241.471 103.541 283.122 114.632 285.557 148.736C287.511 176.117 288.656 227.069 288.656 227.069L165.933 225.85L170.094 144.805C170.472 137.468 172.726 130.308 176.877 124.25C182.204 116.479 186.181 108.915 208.383 107.292V107.288Z" fill="#E6E7E8"/>
<path d="M241.502 104.991L240.219 82.4487C238.84 74.9614 239.444 74.4471 240.092 74.5974C242.256 75.0916 246.29 74.9513 250.458 72.4133C261.215 65.861 253.708 54.6 246.02 56.9778C241.785 58.2869 243.181 62.5415 239.578 65.2666C236.168 67.8447 239.578 48.3082 239.578 48.3082C241.234 29.9639 225.692 22.9608 216.488 20.4361C212.02 19.2105 207.288 19.461 202.993 21.2009C195.836 24.0996 185.534 30.6819 183.941 44.825C181.863 63.2829 181.556 88.9008 195.182 97.0259C210.37 106.083 225.882 90.6941 230.635 86.9872" stroke="black" stroke-miterlimit="10"/>
<path d="M208.383 99.5806V108.911" stroke="#231F20" stroke-miterlimit="10"/>
<path d="M239.531 78.9053C239.561 79.049 239.581 79.1959 239.594 79.3395C240.349 87.3378 245.369 84.5893 245.369 84.5893C269.611 73.0511 266.845 31.4734 266.845 31.4734C261.014 -9.90732 221.527 9.165 221.527 9.165C191.992 -13.0499 183.105 12.1038 183.105 12.1038C172.983 15.2196 169.667 25.1482 179.105 34.6894C188.542 44.2305 199.67 28.9019 199.67 28.9019C199.67 28.9019 208.049 40.7741 228.838 35.8616C230.484 35.4742 232.217 35.5577 233.787 36.1855C236.135 37.1206 238.893 39.0475 238.259 42.868C237.187 49.3067 235.764 64.4249 238.556 65.5905C241.234 66.7092 241.748 62.0104 243.876 58.8445C245.99 55.702 250.982 55.712 254.265 59.8564C258.022 64.5986 253.637 70.9104 248.434 73.4652C248.434 73.4652 246.137 75.1583 239.821 74.5873C239.197 74.5305 239.331 77.9569 239.531 78.8987V78.9053Z" fill="black"/>
<path d="M244.684 177.563L247.386 248.419L290.206 248.576V169.445L244.684 177.563Z" fill="white"/>
<path d="M260.303 116.679C260.303 116.679 239.057 114.963 236.051 140.788C233.046 166.613 234.121 193.887 234.121 193.887H291.372C291.372 193.887 295.816 123.502 260.303 116.679Z" fill="#E6E7E8"/>
<path d="M197.423 108.911C197.423 108.911 165.459 114.058 153.354 132.362C143.068 147.911 157.525 169.111 157.525 169.111L204.583 170.901L199.817 125.853L197.423 108.911Z" fill="#E6E7E8"/>
<path d="M251.066 62.4646C251.066 62.4646 245.883 62.3177 243.545 69.2573" stroke="black" stroke-miterlimit="10"/>
<path d="M190.506 53.5213C191.624 53.5213 192.53 52.6152 192.53 51.4975C192.53 50.3798 191.624 49.4737 190.506 49.4737C189.389 49.4737 188.482 50.3798 188.482 51.4975C188.482 52.6152 189.389 53.5213 190.506 53.5213Z" fill="#231F20"/>
<path d="M216.151 55.5451C217.268 55.5451 218.175 54.639 218.175 53.5213C218.175 52.4036 217.268 51.4975 216.151 51.4975C215.033 51.4975 214.127 52.4036 214.127 53.5213C214.127 54.639 215.033 55.5451 216.151 55.5451Z" fill="#231F20"/>
<path d="M211.736 47.1828C211.736 47.1828 215.927 44.9352 220.562 47.9609" stroke="#231F20" stroke-miterlimit="10"/>
<path d="M187.584 44.1271C187.584 44.1271 191.561 39.6453 195.956 45.68" stroke="#231F20" stroke-miterlimit="10"/>
<path d="M200.047 51.4975L195.476 69.2574H202.385" stroke="black" stroke-miterlimit="10"/>
<path d="M202.485 85.7215C202.485 85.7215 212.481 91.6492 216.154 81.0661" stroke="black" stroke-miterlimit="10"/>
<path d="M244.684 193.767V246.953" stroke="black" stroke-miterlimit="10"/>
<path d="M290.206 249V193.767L233.39 193.887C233.39 193.887 233.313 157.051 235.884 142.277" stroke="black" stroke-miterlimit="10"/>
<path d="M93.1075 210.972L71.9446 248.419L95.5354 249C95.5354 249 135.203 225.847 159.822 247.975L171.371 244.709L182.311 249C182.311 249 196.257 226.107 247.389 248.419L271.027 248.572L249.56 210.231C249.56 210.231 226.163 196.772 206.483 197.724C206.483 197.724 183.907 198.452 171.487 212.759C171.487 212.759 145.95 185.214 102.615 205.582L93.1108 210.972H93.1075Z" fill="white"/>
<path d="M171.224 243.099C171.224 243.099 155.19 208.08 84.478 237.261L102.609 205.582C102.609 205.582 144.447 183.698 171.367 212.969L171.224 243.096V243.099Z" stroke="black" stroke-miterlimit="10"/>
<path d="M84.4816 237.261L71.9448 248.419L95.1449 248.539C95.1449 248.539 137.761 226.304 160.46 248.573L171.367 244.705" stroke="black" stroke-miterlimit="10"/>
<path d="M102.612 205.586L93.1075 210.972L71.7109 248.576" stroke="black" stroke-miterlimit="10"/>
<path d="M171.611 242.835C171.611 242.835 187.544 207.997 258.256 237.178L240.126 205.499C240.126 205.499 198.287 183.614 171.367 212.886L171.611 242.832V242.835Z" stroke="black" stroke-miterlimit="10"/>
<path d="M258.253 237.178L270.789 248.335L247.59 248.456C247.59 248.456 204.973 226.221 182.274 248.489L171.367 244.622" stroke="black" stroke-miterlimit="10"/>
<path d="M240.125 205.502L249.63 210.889L271.023 248.489" stroke="black" stroke-miterlimit="10"/>
<path d="M133.767 199.471L159.124 225.847L174.543 194.615L133.767 199.471Z" fill="white" stroke="#231F20" stroke-miterlimit="10"/>
<path d="M176.153 197.724L176.032 197.914L133.74 203.475L118.986 94.9353C118.859 94.0002 118.795 93.0652 118.795 92.1401C118.795 85.0602 122.446 78.3744 128.594 74.5806C134.027 71.2143 140.72 70.5564 146.714 72.8073L149.209 73.7424C156.386 76.4341 161.475 82.8728 162.444 90.4703L176.153 197.727V197.724Z" fill="#F480FF"/>
<path d="M119.243 98.168L163.081 95.4229L162.474 88.6636C162.474 88.6636 159.031 73.5787 141.658 71.2043C141.658 71.2043 121.257 69.7048 118.501 91.4889L119.243 98.1647V98.168Z" fill="black"/>
<path d="M151.216 217.424L164.144 215.681L159.124 225.847L151.216 217.424Z" fill="#231F20" stroke="#231F20" stroke-miterlimit="10"/>
<path d="M132.605 106.641L143.168 186.941" stroke="#231F20" stroke-miterlimit="10"/>
<path d="M142.79 106.667L153.353 186.971" stroke="#231F20" stroke-miterlimit="10"/>
<path d="M153.354 106.083L163.917 186.383" stroke="#231F20" stroke-miterlimit="10"/>
<path d="M135.371 156.526L121.589 158.301C120.567 158.433 119.845 159.369 119.976 160.391L120.717 166.144C120.849 167.167 121.785 167.889 122.808 167.757L136.59 165.982C137.612 165.85 138.334 164.915 138.203 163.892L137.461 158.139C137.33 157.116 136.394 156.394 135.371 156.526Z" fill="white" stroke="#231F20" stroke-miterlimit="10"/>
<path d="M134.654 127.84L116.036 130.238C115.013 130.369 114.291 131.305 114.423 132.328L115.164 138.081C115.296 139.104 116.231 139.826 117.254 139.694L135.872 137.296C136.894 137.164 137.617 136.228 137.485 135.206L136.744 129.453C136.612 128.43 135.676 127.708 134.654 127.84Z" fill="white" stroke="#231F20" stroke-miterlimit="10"/>
<path d="M136.948 146.878L119.062 149.182C118.04 149.314 117.317 150.249 117.449 151.272L118.19 157.025C118.322 158.048 119.258 158.77 120.28 158.638L138.166 156.334C139.189 156.203 139.911 155.267 139.779 154.244L139.038 148.491C138.906 147.468 137.971 146.746 136.948 146.878Z" fill="white" stroke="#231F20" stroke-miterlimit="10"/>
<path d="M138.705 136.913L117.252 139.676C116.229 139.808 115.507 140.744 115.639 141.766L116.38 147.52C116.512 148.542 117.448 149.264 118.47 149.133L139.923 146.369C140.946 146.238 141.668 145.302 141.536 144.279L140.795 138.526C140.663 137.503 139.728 136.781 138.705 136.913Z" fill="white" stroke="#231F20" stroke-miterlimit="10"/>
<path d="M159.124 225.847L142.977 218.202C141.602 217.551 140.002 217.588 138.656 218.299C136.101 219.652 133.122 219.959 130.347 219.158L126.6 218.072C124.667 217.511 122.599 217.605 120.723 218.336L118.365 219.254C114.982 220.574 111.235 220.61 107.825 219.358C106.893 219.014 105.858 219.084 104.976 219.545L96.8545 223.8" stroke="black" stroke-miterlimit="10"/>
<path d="M235.884 142.28L212.167 181.4H226.397V200.887C226.397 200.887 238.753 204.046 244.684 208.083V193.767L233.39 193.887C233.39 193.887 235.053 147.804 235.884 142.277V142.28Z" fill="black"/>
<path d="M290.206 249H13.168" stroke="#231F20" stroke-miterlimit="10"/>
</svg>
